<?xml version="1.0"?>
<svg xmlns="http://www.w3.org/2000/svg" xmlns:xlink="http://www.w3.org/1999/xlink" id="svg" version="1.1" width="400" height="85.48895899053629" viewBox="0, 0, 400,85.48895899053629" fill="#ffffff">
  <g id="svgg">
    <path id="path0" d="M110.151 13.210 C 110.206 17.352,110.288 31.424,110.333 44.479 C 110.378 57.535,110.457 69.584,110.509 71.254 L 110.602 74.290 111.477 74.290 L 112.351 74.290 112.249 57.610 C 112.192 48.437,112.099 32.999,112.042 23.304 L 111.939 5.678 110.995 5.678 L 110.051 5.678 110.151 13.210 M36.246 7.903 C 22.934 8.927,11.533 19.131,8.851 32.420 C 5.800 47.532,11.551 62.128,23.265 69.009 C 28.702 72.202,36.844 73.760,42.744 72.736 C 43.428 72.617,46.913 72.557,53.194 72.556 L 62.618 72.555 62.618 71.688 L 62.618 70.820 60.905 70.820 C 58.062 70.820,56.131 70.216,55.054 68.990 L 54.561 68.428 55.925 67.399 C 60.545 63.914,64.733 58.590,66.571 53.862 C 66.858 53.126,67.140 52.524,67.199 52.524 C 67.258 52.524,70.563 57.029,74.544 62.535 L 81.782 72.546 90.260 72.551 L 98.738 72.555 98.738 71.711 L 98.738 70.866 97.043 70.593 C 92.168 69.808,89.221 68.042,85.582 63.722 C 83.945 61.779,84.102 61.992,76.432 51.340 L 69.391 41.562 70.145 41.361 C 80.394 38.639,85.278 33.102,84.975 24.548 C 84.806 19.769,82.851 16.107,78.864 13.100 C 74.250 9.619,69.542 8.845,52.917 8.836 C 47.455 8.833,47.171 8.818,45.504 8.443 C 42.742 7.822,39.647 7.641,36.246 7.903 M149.165 8.706 C 147.391 9.439,146.845 9.730,146.887 9.922 C 146.918 10.060,147.040 10.151,147.159 10.125 C 147.925 9.951,148.605 10.049,148.937 10.381 L 149.290 10.734 149.334 20.430 C 149.386 31.900,149.434 31.577,147.660 31.815 C 147.155 31.882,147.003 31.971,147.003 32.197 C 147.003 32.477,147.199 32.492,150.868 32.492 C 154.627 32.492,154.732 32.484,154.732 32.177 C 154.732 31.926,154.627 31.861,154.219 31.861 C 152.367 31.860,152.228 31.406,152.217 25.288 L 152.208 20.371 153.008 19.672 C 155.210 17.746,157.546 17.679,158.458 19.516 C 158.726 20.055,158.759 20.611,158.806 25.437 L 158.858 30.763 158.309 31.312 C 157.842 31.780,157.653 31.861,157.035 31.861 C 156.414 31.861,156.309 31.907,156.309 32.177 C 156.309 32.484,156.414 32.492,160.174 32.492 C 163.843 32.492,164.038 32.477,164.038 32.197 C 164.038 31.964,163.887 31.885,163.322 31.822 C 161.782 31.648,161.674 31.245,161.673 25.677 C 161.672 19.360,161.346 17.852,159.752 16.781 C 157.894 15.533,155.786 16.025,153.459 18.247 L 152.208 19.442 152.208 13.586 L 152.208 7.729 151.853 7.736 C 151.658 7.740,150.448 8.176,149.165 8.706 M291.217 7.904 C 290.208 8.193,289.765 9.377,290.288 10.387 C 290.687 11.158,291.984 11.461,292.710 10.953 C 294.359 9.798,293.159 7.349,291.217 7.904 M200.946 8.452 C 194.677 9.162,190.626 13.921,190.618 20.584 C 190.601 34.834,208.922 37.924,213.028 24.363 C 215.566 15.983,209.143 7.524,200.946 8.452 M125.964 9.819 C 125.668 12.738,125.687 14.353,126.019 14.353 C 126.229 14.353,126.341 14.250,126.341 14.056 C 126.341 11.563,127.966 10.419,131.514 10.414 L 133.927 10.410 133.880 20.414 C 133.834 30.247,133.827 30.426,133.506 30.864 C 133.052 31.482,132.234 31.861,131.349 31.861 C 130.705 31.861,130.599 31.906,130.599 32.177 C 130.599 32.485,130.705 32.492,135.568 32.492 C 140.431 32.492,140.536 32.485,140.536 32.177 C 140.536 31.907,140.428 31.860,139.787 31.852 C 138.699 31.839,137.998 31.546,137.584 30.931 L 137.224 30.395 137.224 20.403 L 137.224 10.410 139.453 10.410 C 143.129 10.410,144.795 11.550,144.795 14.066 C 144.795 14.255,144.911 14.353,145.134 14.353 C 145.467 14.353,145.472 14.320,145.371 12.673 C 145.314 11.748,145.268 10.542,145.268 9.991 L 145.268 8.991 135.658 8.991 L 126.048 8.991 125.964 9.819 M203.821 9.839 C 207.576 10.723,209.505 14.433,209.531 20.820 C 209.557 27.457,207.419 31.043,203.036 31.711 C 197.701 32.525,194.582 28.423,194.574 20.584 C 194.566 12.484,198.018 8.473,203.821 9.839 M41.798 11.485 C 43.230 12.156,43.946 13.357,44.357 15.773 C 44.651 17.500,44.650 64.059,44.356 65.755 C 43.745 69.280,42.781 69.841,37.618 69.671 C 25.630 69.277,18.726 58.501,18.699 40.142 C 18.675 24.113,23.863 14.185,33.579 11.667 C 36.103 11.013,40.579 10.914,41.798 11.485 M281.193 12.828 C 280.379 14.511,279.065 16.040,277.780 16.798 C 276.621 17.482,276.717 17.666,278.233 17.666 L 279.495 17.666 279.496 23.304 C 279.497 30.473,279.591 31.102,280.802 32.076 C 282.474 33.421,284.995 32.502,286.210 30.104 C 286.680 29.176,286.292 28.972,285.666 29.818 C 284.870 30.895,283.446 31.020,282.744 30.075 C 282.422 29.642,282.413 29.474,282.413 23.687 L 282.413 17.744 284.267 17.700 L 286.120 17.656 286.120 17.109 L 286.120 16.562 284.227 16.562 L 282.334 16.562 282.334 13.959 C 282.334 10.813,282.221 10.700,281.193 12.828 M64.498 12.771 C 74.783 14.893,78.162 28.379,70.229 35.647 C 69.048 36.730,69.024 36.722,68.858 35.174 C 68.000 27.133,63.548 19.225,56.896 13.920 C 55.811 13.054,55.711 12.932,56.029 12.860 C 58.086 12.388,62.421 12.343,64.498 12.771 M171.451 16.261 C 167.326 17.063,164.809 22.153,166.013 27.259 C 167.718 34.491,176.683 34.865,178.866 27.795 C 179.379 26.137,178.901 25.971,178.096 27.529 C 175.394 32.753,168.168 29.630,168.142 23.226 L 168.139 22.555 173.659 22.555 C 179.939 22.555,179.317 22.731,179.009 21.046 C 178.363 17.518,175.220 15.528,171.451 16.261 M224.763 16.228 C 223.502 16.503,221.872 17.811,221.053 19.203 C 220.581 20.007,220.505 19.837,220.505 17.981 C 220.505 15.849,220.661 15.892,217.501 17.163 C 214.960 18.185,214.418 18.664,215.986 18.502 C 217.116 18.385,217.664 18.843,217.668 19.906 C 217.711 30.419,217.650 38.192,217.521 38.529 C 217.314 39.074,216.592 39.432,215.702 39.432 C 215.089 39.432,214.984 39.478,214.984 39.748 C 214.984 40.055,215.089 40.063,219.085 40.063 C 223.081 40.063,223.186 40.055,223.186 39.748 C 223.186 39.484,223.081 39.432,222.547 39.432 C 221.730 39.432,221.013 39.060,220.786 38.518 C 220.573 38.011,220.408 31.703,220.607 31.704 C 220.681 31.705,221.055 31.913,221.439 32.168 C 223.562 33.576,226.870 33.059,228.951 30.994 C 234.238 25.750,231.143 14.836,224.763 16.228 M240.063 16.262 C 233.025 17.636,232.196 29.843,238.959 32.515 C 242.313 33.840,246.191 31.809,247.379 28.105 C 247.967 26.272,247.543 25.905,246.708 27.525 C 244.036 32.707,236.751 29.629,236.751 23.319 L 236.751 22.555 242.271 22.555 C 247.425 22.555,247.792 22.537,247.789 22.279 C 247.748 18.190,244.228 15.448,240.063 16.262 M251.538 17.060 C 249.698 17.820,249.211 18.083,249.211 18.319 C 249.211 18.566,249.287 18.599,249.642 18.510 C 250.495 18.296,250.983 18.387,251.366 18.831 L 251.735 19.260 251.735 24.974 C 251.735 31.662,251.676 31.861,249.690 31.861 C 249.317 31.861,249.211 31.931,249.211 32.177 C 249.211 32.484,249.317 32.492,253.312 32.492 C 257.213 32.492,257.413 32.478,257.413 32.197 C 257.413 31.964,257.262 31.885,256.685 31.820 C 254.802 31.608,254.664 31.198,254.605 25.660 L 254.556 21.115 254.946 20.455 C 256.152 18.413,256.780 18.122,258.066 19.006 C 260.015 20.347,262.010 18.444,260.371 16.807 C 258.994 15.433,256.798 16.285,255.170 18.825 L 254.653 19.632 254.608 17.860 C 254.554 15.690,254.738 15.738,251.538 17.060 M266.857 16.239 C 264.042 16.752,262.013 19.103,262.855 20.876 C 263.718 22.695,265.643 21.647,265.566 19.401 C 265.516 17.946,266.363 17.164,267.979 17.171 C 269.961 17.181,270.844 18.279,270.882 20.778 L 270.899 21.939 269.153 22.625 C 263.848 24.710,262.157 26.174,262.149 28.688 C 262.135 32.768,265.605 34.017,269.395 31.296 C 271.072 30.092,270.913 30.121,271.032 30.995 C 271.220 32.360,272.071 32.960,273.394 32.658 C 274.638 32.374,276.498 30.646,276.498 29.775 L 276.498 29.311 275.766 29.955 C 273.999 31.511,273.860 31.130,273.784 24.527 C 273.715 18.498,273.674 18.265,272.505 17.239 C 271.528 16.381,268.762 15.891,266.857 16.239 M290.024 17.073 C 288.744 17.600,287.698 18.073,287.700 18.124 C 287.708 18.460,287.987 18.585,288.490 18.480 C 290.278 18.107,290.300 18.185,290.300 24.914 C 290.300 31.685,290.251 31.861,288.397 31.861 C 287.960 31.861,287.855 31.922,287.855 32.177 C 287.855 32.484,287.960 32.492,291.719 32.492 C 295.389 32.492,295.584 32.477,295.584 32.197 C 295.584 31.963,295.432 31.885,294.855 31.820 C 294.353 31.763,293.998 31.609,293.712 31.323 L 293.297 30.908 293.251 23.498 L 293.206 16.088 292.778 16.101 C 292.543 16.108,291.303 16.545,290.024 17.073 M321.451 16.294 C 313.698 18.080,313.904 31.619,321.703 32.833 C 324.663 33.294,327.253 31.705,328.657 28.568 C 329.392 26.924,329.084 25.765,328.315 27.282 C 327.299 29.288,326.137 30.041,324.054 30.045 C 320.801 30.051,318.649 27.667,318.211 23.569 L 318.102 22.555 323.641 22.555 L 329.180 22.555 329.178 21.964 C 329.166 18.095,325.455 15.372,321.451 16.294 M296.845 16.858 C 296.845 17.076,297.025 17.200,297.517 17.324 C 298.800 17.647,298.976 17.958,302.270 25.731 C 305.002 32.177,305.338 32.886,305.661 32.886 C 305.997 32.886,308.647 26.851,311.462 19.675 C 311.997 18.311,312.767 17.396,313.493 17.260 C 313.886 17.186,314.038 17.074,314.038 16.859 C 314.038 16.579,313.882 16.562,311.435 16.562 C 308.938 16.562,308.833 16.574,308.833 16.877 C 308.833 17.137,308.938 17.192,309.434 17.192 C 310.276 17.192,310.781 17.678,310.640 18.351 C 310.541 18.825,307.112 27.425,306.707 28.217 C 306.464 28.689,306.675 29.099,304.411 23.738 C 302.007 18.045,301.918 17.192,303.724 17.192 C 304.154 17.192,304.259 17.130,304.259 16.877 C 304.259 16.570,304.154 16.562,300.552 16.562 C 297.029 16.562,296.845 16.576,296.845 16.858 M173.271 17.523 C 174.403 17.865,175.309 19.173,175.492 20.730 L 175.595 21.609 171.867 21.609 C 167.641 21.609,167.936 21.727,168.409 20.226 C 169.118 17.978,171.110 16.870,173.271 17.523 M242.401 17.806 C 243.515 18.607,244.156 19.835,244.162 21.175 L 244.164 21.609 240.437 21.609 L 236.710 21.609 236.817 20.945 C 237.275 18.078,240.364 16.342,242.401 17.806 M323.880 17.814 C 324.940 18.469,325.549 19.636,325.551 21.017 L 325.552 21.609 321.934 21.609 C 317.878 21.609,318.098 21.678,318.397 20.505 C 319.077 17.836,321.774 16.512,323.880 17.814 M225.697 18.921 C 229.376 20.798,229.611 29.552,226.037 31.530 C 224.249 32.518,221.561 31.595,220.805 29.732 C 220.678 29.419,220.589 27.841,220.541 25.079 L 220.469 20.899 221.352 20.064 C 222.852 18.646,224.373 18.246,225.697 18.921 M54.877 21.350 C 57.156 25.993,58.299 30.949,58.619 37.570 L 58.723 39.730 58.344 39.823 C 58.136 39.875,56.972 39.897,55.757 39.872 L 53.549 39.826 53.508 29.436 C 53.462 17.566,53.349 18.235,54.877 21.350 M270.978 26.071 L 270.978 29.113 269.974 29.773 C 267.898 31.138,266.584 31.120,265.511 29.713 C 264.255 28.067,265.186 25.643,267.540 24.427 C 268.521 23.921,270.550 23.051,270.781 23.039 C 270.932 23.031,270.978 23.736,270.978 26.071 M58.622 44.927 C 58.376 50.166,57.317 54.939,55.573 58.675 C 54.953 60.004,53.692 62.145,53.530 62.145 C 53.497 62.145,53.470 57.784,53.470 52.453 L 53.470 42.761 56.096 42.766 L 58.723 42.772 58.622 44.927 M186.960 47.902 C 186.021 48.083,185.414 49.409,185.868 50.287 C 186.757 52.006,189.117 51.395,189.117 49.446 C 189.117 48.835,188.432 47.950,187.959 47.950 C 187.829 47.950,187.628 47.924,187.513 47.893 C 187.397 47.862,187.149 47.866,186.960 47.902 M269.919 48.178 C 267.029 49.081,265.311 51.799,265.302 55.481 L 265.300 56.625 263.722 56.625 L 262.145 56.625 262.145 57.256 L 262.145 57.886 263.722 57.886 L 265.300 57.886 265.296 63.762 C 265.291 71.309,265.183 71.725,263.181 71.891 C 262.453 71.951,262.303 72.014,262.303 72.259 C 262.303 72.542,262.512 72.555,267.035 72.555 C 271.661 72.555,271.767 72.548,271.767 72.240 C 271.767 71.959,271.661 71.924,270.815 71.924 C 268.235 71.924,268.229 71.906,268.171 64.156 L 268.125 57.886 270.182 57.886 L 272.240 57.886 272.240 57.256 L 272.240 56.625 270.172 56.625 L 268.104 56.625 268.171 53.825 C 268.244 50.770,268.384 50.169,269.161 49.557 C 270.132 48.794,271.360 48.929,272.252 49.899 C 274.662 52.517,274.773 52.578,275.698 51.800 C 277.925 49.926,273.400 47.090,269.919 48.178 M289.281 48.594 C 285.282 49.296,282.798 53.582,284.433 56.960 C 285.324 58.801,286.625 59.848,291.372 62.544 C 294.447 64.290,295.373 65.000,295.945 66.055 C 298.107 70.034,293.201 73.302,288.510 71.008 C 286.474 70.013,285.471 68.505,284.790 65.418 C 284.737 65.179,284.589 64.984,284.461 64.984 C 284.261 64.984,284.227 65.559,284.227 69.006 C 284.227 72.453,284.261 73.028,284.461 73.028 C 284.589 73.028,284.738 72.856,284.790 72.646 C 285.053 71.600,285.710 71.557,288.407 72.407 C 294.343 74.277,299.448 71.576,299.448 66.565 C 299.448 63.201,298.472 62.209,291.125 58.106 C 286.627 55.595,285.540 53.492,287.554 51.203 C 290.518 47.837,296.568 50.677,297.265 55.761 C 297.340 56.310,297.427 56.467,297.656 56.467 C 297.935 56.467,297.950 56.264,297.950 52.445 C 297.950 48.528,297.941 48.423,297.634 48.423 C 297.456 48.423,297.319 48.528,297.319 48.665 C 297.319 49.802,296.455 49.965,294.373 49.223 C 292.458 48.539,290.775 48.332,289.281 48.594 M125.237 49.256 C 125.237 49.418,125.500 49.507,126.157 49.566 C 127.368 49.676,128.037 50.038,128.364 50.760 C 128.809 51.740,128.761 70.042,128.312 70.802 C 127.884 71.528,127.090 71.924,126.067 71.924 C 125.342 71.924,125.237 71.964,125.237 72.240 C 125.237 72.549,125.342 72.555,130.284 72.555 C 135.122 72.555,135.331 72.543,135.331 72.258 C 135.331 72.004,135.182 71.952,134.308 71.896 C 132.089 71.755,131.954 71.420,131.888 65.891 L 131.835 61.514 133.149 61.519 L 134.464 61.525 138.416 67.001 L 142.368 72.476 145.474 72.519 C 148.463 72.560,148.580 72.550,148.580 72.254 C 148.580 72.007,148.404 71.910,147.674 71.759 C 146.354 71.487,145.308 70.897,144.322 69.872 C 143.487 69.003,137.934 61.417,137.934 61.144 C 137.934 61.071,138.431 60.853,139.038 60.658 C 145.241 58.675,145.069 51.043,138.784 49.352 C 137.655 49.048,125.237 48.960,125.237 49.256 M136.987 50.770 C 138.646 51.565,139.557 52.917,139.709 54.812 C 139.978 58.165,137.386 60.410,133.245 60.410 L 131.857 60.410 131.898 55.481 L 131.940 50.552 132.492 50.455 C 134.107 50.169,136.014 50.303,136.987 50.770 M155.398 56.381 C 147.792 58.112,148.030 71.644,155.689 72.886 C 158.878 73.403,161.807 71.447,162.940 68.042 C 163.441 66.536,162.984 65.865,162.409 67.263 C 160.057 72.983,152.208 69.762,152.208 63.078 L 152.208 62.618 157.751 62.618 L 163.294 62.618 163.197 61.689 C 162.785 57.747,159.430 55.464,155.398 56.381 M185.758 57.126 C 183.976 57.862,183.437 58.149,183.480 58.343 C 183.511 58.482,183.622 58.578,183.728 58.555 C 185.896 58.095,185.883 58.056,185.883 65.080 L 185.883 71.004 185.368 71.464 C 184.982 71.809,184.696 71.924,184.225 71.924 C 183.701 71.924,183.596 71.977,183.596 72.240 C 183.596 72.547,183.701 72.555,187.461 72.555 C 191.220 72.555,191.325 72.547,191.325 72.240 C 191.325 71.984,191.220 71.924,190.765 71.924 C 188.900 71.924,188.888 71.872,188.833 63.368 L 188.786 56.151 188.439 56.157 C 188.248 56.160,187.041 56.596,185.758 57.126 M199.211 56.361 C 191.358 58.201,191.800 72.091,199.739 72.941 C 202.951 73.285,205.932 71.034,206.792 67.614 C 207.126 66.288,206.660 66.122,206.069 67.357 C 203.465 72.806,196.739 70.252,195.979 63.525 L 195.876 62.618 201.431 62.618 L 206.986 62.618 206.891 61.632 C 206.521 57.790,203.110 55.448,199.211 56.361 M250.333 56.322 C 245.244 57.321,242.587 63.919,245.229 68.992 C 248.088 74.482,255.716 74.307,258.377 68.691 C 261.527 62.044,256.959 55.021,250.333 56.322 M322.121 57.134 C 320.799 57.665,319.717 58.140,319.719 58.190 C 319.727 58.523,320.008 58.648,320.509 58.543 C 322.288 58.171,322.310 58.249,322.360 64.977 C 322.408 71.604,322.318 71.923,320.386 71.924 C 319.979 71.924,319.874 71.989,319.874 72.240 C 319.874 72.547,319.979 72.555,323.961 72.555 C 327.753 72.555,328.045 72.535,328.008 72.281 C 327.980 72.092,327.758 71.971,327.291 71.891 C 325.402 71.569,325.325 71.339,325.267 65.830 C 325.213 60.615,325.207 60.647,326.530 59.211 C 327.308 58.368,327.589 58.349,328.707 59.069 C 330.771 60.399,332.673 58.424,330.912 56.779 C 329.490 55.451,327.506 56.315,325.658 59.067 L 325.237 59.695 325.237 57.923 C 325.237 55.753,325.435 55.803,322.121 57.134 M338.486 56.361 C 333.483 57.534,332.056 63.844,336.213 66.413 L 336.749 66.744 335.894 67.526 C 333.848 69.395,333.538 70.660,334.848 71.789 L 335.627 72.460 334.540 73.605 C 331.882 76.403,331.902 77.882,334.617 79.178 C 340.386 81.931,348.516 78.736,348.239 73.825 C 348.084 71.093,346.784 70.470,340.662 70.200 C 336.710 70.025,336.064 69.802,336.339 68.703 C 336.583 67.732,337.533 67.019,338.328 67.209 C 343.346 68.411,347.770 64.073,345.836 59.847 C 345.610 59.355,345.426 58.926,345.426 58.893 C 345.426 58.860,345.940 58.832,346.569 58.831 C 348.033 58.828,348.405 58.722,348.517 58.277 C 348.738 57.393,348.464 57.277,346.016 57.217 C 343.980 57.167,343.678 57.122,342.788 56.731 C 341.600 56.209,339.794 56.054,338.486 56.361 M356.309 56.358 C 348.548 58.145,348.755 71.680,356.561 72.896 C 359.521 73.357,362.111 71.768,363.515 68.631 C 364.250 66.987,363.942 65.828,363.173 67.345 C 362.157 69.351,360.995 70.104,358.912 70.108 C 355.659 70.114,353.507 67.730,353.069 63.633 L 352.960 62.618 358.499 62.618 L 364.038 62.618 364.036 62.027 C 364.024 58.158,360.314 55.435,356.309 56.358 M367.902 57.103 C 366.688 57.613,365.628 58.055,365.547 58.086 C 365.074 58.267,365.632 58.630,366.219 58.522 C 367.979 58.200,368.034 58.379,368.105 64.684 C 368.180 71.437,368.119 71.683,366.323 71.886 C 365.765 71.948,365.615 72.028,365.615 72.260 C 365.615 72.541,365.814 72.555,369.637 72.555 C 373.554 72.555,373.659 72.547,373.659 72.240 C 373.659 71.993,373.554 71.924,373.180 71.924 C 372.566 71.924,371.598 71.425,371.293 70.952 C 371.099 70.650,371.048 69.721,371.009 65.773 L 370.962 60.962 371.435 60.252 C 372.687 58.374,373.093 58.215,374.441 59.073 C 376.441 60.348,378.293 58.587,376.728 56.899 C 375.363 55.427,373.125 56.298,371.438 58.957 L 370.978 59.683 370.978 57.917 L 370.978 56.151 370.544 56.163 C 370.306 56.170,369.117 56.592,367.902 57.103 M164.669 56.928 C 164.669 57.142,164.819 57.263,165.181 57.340 C 166.685 57.662,166.610 57.532,170.192 65.994 C 172.863 72.308,173.168 72.950,173.499 72.950 C 173.830 72.950,174.081 72.424,176.207 67.271 C 179.729 58.739,179.833 58.503,180.325 57.943 C 180.602 57.627,180.993 57.383,181.321 57.322 C 181.710 57.249,181.861 57.137,181.861 56.923 C 181.861 56.642,181.705 56.625,179.259 56.625 C 176.761 56.625,176.656 56.637,176.656 56.940 C 176.656 57.203,176.761 57.256,177.287 57.256 C 178.141 57.256,178.616 57.718,178.483 58.423 C 178.347 59.150,174.521 68.472,174.356 68.479 C 174.191 68.486,170.447 59.614,170.297 58.861 C 170.107 57.906,170.643 57.256,171.622 57.256 C 171.977 57.256,172.082 57.183,172.082 56.940 C 172.082 56.634,171.977 56.625,168.375 56.625 C 164.825 56.625,164.669 56.637,164.669 56.928 M208.360 56.909 C 208.360 57.099,208.613 57.300,209.129 57.518 C 210.210 57.975,210.338 58.237,213.359 66.152 C 215.681 72.234,216.026 73.037,216.303 72.996 C 216.549 72.960,217.110 71.867,218.902 67.936 C 220.159 65.178,221.238 62.978,221.300 63.046 C 221.362 63.115,222.170 65.111,223.095 67.483 C 224.020 69.854,224.888 72.072,225.024 72.412 C 225.599 73.849,225.686 73.697,228.683 65.941 C 231.616 58.350,231.834 57.903,232.805 57.474 C 234.208 56.855,233.716 56.625,230.994 56.625 C 228.711 56.625,228.549 56.644,228.549 56.919 C 228.549 57.136,228.700 57.239,229.115 57.306 C 229.885 57.431,230.126 57.670,230.126 58.309 C 230.126 58.747,226.969 67.451,226.517 68.257 C 226.358 68.542,222.704 59.234,222.709 58.557 C 222.714 57.872,223.161 57.460,224.042 57.328 C 224.606 57.243,224.763 57.155,224.763 56.922 C 224.763 56.639,224.582 56.625,220.978 56.625 C 217.387 56.625,217.192 56.640,217.192 56.919 C 217.192 57.145,217.344 57.234,217.842 57.301 C 218.823 57.433,219.435 58.126,220.111 59.870 L 220.677 61.331 218.979 65.047 C 218.044 67.091,217.233 68.711,217.175 68.648 C 217.009 68.468,213.690 59.468,213.535 58.779 C 213.354 57.976,213.667 57.467,214.431 57.324 C 214.832 57.249,214.984 57.138,214.984 56.923 C 214.984 56.640,214.814 56.625,211.672 56.625 C 208.586 56.625,208.360 56.644,208.360 56.909 M301.577 56.940 C 301.577 57.206,301.683 57.256,302.248 57.258 C 304.164 57.264,304.287 57.599,304.270 62.791 C 304.249 69.297,304.456 70.552,305.764 71.868 C 307.604 73.719,309.959 73.364,312.626 70.833 C 313.272 70.219,313.819 69.717,313.841 69.717 C 313.862 69.716,313.880 70.461,313.880 71.372 C 313.880 72.927,313.900 73.028,314.197 73.028 C 314.697 73.028,319.243 71.114,319.243 70.904 C 319.243 70.578,319.081 70.531,318.504 70.691 C 316.722 71.183,316.665 70.959,316.590 63.131 L 316.528 56.625 313.863 56.625 C 311.304 56.625,311.199 56.637,311.199 56.940 C 311.199 57.179,311.304 57.256,311.632 57.256 C 313.718 57.261,313.790 57.466,313.851 63.579 L 313.900 68.562 313.035 69.352 C 311.037 71.179,308.837 71.393,307.704 69.873 C 307.209 69.209,307.100 67.809,307.099 62.106 L 307.098 56.625 304.338 56.625 C 301.682 56.625,301.577 56.637,301.577 56.940 M377.287 56.915 C 377.287 57.117,377.478 57.263,377.911 57.392 C 378.509 57.572,379.188 58.247,379.834 59.306 C 380.268 60.018,385.804 71.753,385.804 71.959 C 385.802 72.321,384.380 75.616,383.967 76.215 C 383.217 77.301,382.620 77.490,381.368 77.038 C 379.236 76.267,377.539 77.355,378.339 78.979 C 379.461 81.257,383.358 80.104,385.125 76.972 C 385.394 76.494,387.233 72.133,389.212 67.278 C 392.932 58.157,393.240 57.537,394.171 57.333 C 394.490 57.263,394.637 57.135,394.637 56.928 C 394.637 56.641,394.497 56.625,392.114 56.625 C 389.695 56.625,389.590 56.638,389.590 56.940 C 389.590 57.180,389.695 57.256,390.028 57.256 C 390.699 57.256,391.167 57.662,391.167 58.245 C 391.167 58.778,387.393 68.322,387.224 68.218 C 386.879 68.005,382.911 59.376,382.845 58.697 C 382.758 57.790,383.249 57.256,384.170 57.256 C 384.595 57.256,384.700 57.193,384.700 56.940 C 384.700 56.634,384.595 56.625,380.994 56.625 C 377.498 56.625,377.287 56.641,377.287 56.915 M340.812 57.183 C 343.745 58.408,344.279 64.931,341.554 66.250 C 338.985 67.493,336.759 65.151,336.754 61.199 C 336.750 58.048,338.570 56.246,340.812 57.183 M157.950 57.877 C 159.010 58.532,159.619 59.699,159.621 61.080 L 159.621 61.672 155.908 61.672 L 152.194 61.672 152.300 61.080 C 152.836 58.087,155.680 56.474,157.950 57.877 M201.514 57.773 C 202.599 58.339,203.218 59.419,203.341 60.962 L 203.391 61.593 199.724 61.635 L 196.057 61.678 196.057 61.221 C 196.057 58.516,199.169 56.550,201.514 57.773 M252.969 57.635 C 256.871 59.653,257.562 69.605,253.930 71.458 C 250.624 73.144,247.312 69.093,247.321 63.374 C 247.328 58.733,249.947 56.073,252.969 57.635 M358.738 57.877 C 359.799 58.532,360.407 59.699,360.409 61.080 L 360.410 61.672 356.792 61.672 C 352.736 61.672,352.956 61.741,353.255 60.568 C 353.935 57.899,356.632 56.575,358.738 57.877 M341.562 72.878 C 346.609 73.132,347.536 73.525,347.033 75.197 C 346.379 77.366,343.354 78.518,339.431 78.091 C 335.112 77.621,333.896 75.981,335.903 73.334 L 336.514 72.527 337.382 72.619 C 337.859 72.670,339.740 72.787,341.562 72.878 " stroke="none" fill="#ffffff" fill-rule="evenodd"/>
  </g>
</svg>
