<svg id="svg" version="1.1" xmlns="http://www.w3.org/2000/svg" xmlns:xlink="http://www.w3.org/1999/xlink" width="400" height="85.48895899053629" viewBox="0, 0, 400,85.48895899053629"><g id="svgg"><path id="path0" d="M36.917 7.771 C 31.018 8.137,22.823 11.151,20.669 13.747 C 20.537 13.907,20.276 14.093,20.089 14.160 C 19.328 14.436,14.932 18.860,14.643 19.642 C 14.570 19.839,14.451 20.000,14.377 20.000 C 14.304 20.000,13.833 20.619,13.330 21.375 C 12.828 22.131,12.371 22.787,12.315 22.833 C 11.565 23.449,9.118 30.079,8.747 32.500 C 8.600 33.462,8.409 34.700,8.323 35.250 C 7.611 39.814,8.216 47.300,9.666 51.857 C 10.605 54.808,12.210 58.038,13.769 60.113 C 14.263 60.770,14.667 61.376,14.667 61.458 C 14.667 61.541,14.967 61.903,15.334 62.262 C 15.701 62.622,16.468 63.460,17.038 64.125 C 17.609 64.790,18.136 65.333,18.209 65.333 C 18.334 65.333,20.049 66.737,21.000 67.618 C 21.229 67.830,21.567 68.050,21.750 68.107 C 21.933 68.164,22.586 68.534,23.200 68.930 C 25.420 70.360,27.130 71.046,31.069 72.086 C 38.273 73.990,47.742 72.610,53.798 68.774 C 54.191 68.525,54.596 68.373,54.699 68.436 C 54.812 68.506,54.838 68.476,54.766 68.359 C 54.698 68.250,54.744 68.167,54.872 68.167 C 55.513 68.167,60.839 63.136,62.388 61.066 C 62.876 60.415,63.443 59.703,63.648 59.483 C 63.853 59.263,64.253 58.596,64.536 58.000 C 64.819 57.404,65.108 56.879,65.178 56.832 C 65.311 56.744,66.634 54.022,67.041 53.000 L 67.274 52.417 63.758 47.583 L 60.241 42.750 59.480 42.700 L 58.719 42.651 58.608 44.784 C 58.495 46.974,58.057 50.180,57.574 52.354 C 56.215 58.468,53.247 63.429,49.271 66.232 C 47.122 67.747,43.035 69.520,42.865 69.011 C 42.823 68.887,42.733 68.875,42.609 68.978 C 41.958 69.513,37.211 69.684,35.098 69.248 C 31.890 68.585,30.504 67.991,28.430 66.390 C 27.795 65.901,27.224 65.500,27.161 65.500 C 27.097 65.500,26.571 64.919,25.991 64.208 C 25.411 63.498,24.811 62.792,24.658 62.640 C 23.177 61.169,20.958 56.112,20.026 52.083 C 16.302 35.979,20.172 19.166,28.833 13.821 C 34.946 10.049,44.003 10.315,49.341 14.423 C 51.029 15.721,53.500 18.454,53.500 19.022 C 53.500 19.106,53.744 19.533,54.042 19.971 C 56.091 22.986,57.981 29.683,58.494 35.750 C 58.724 38.473,58.714 39.618,58.458 39.729 C 58.344 39.779,58.438 39.787,58.667 39.747 C 58.896 39.706,59.721 39.593,60.500 39.495 C 63.503 39.116,66.074 38.319,68.026 37.161 L 69.135 36.504 69.050 35.793 C 68.907 34.608,68.194 31.179,67.744 29.511 C 67.095 27.110,66.738 26.302,64.499 22.184 C 64.074 21.403,63.236 20.219,62.895 19.917 C 62.791 19.825,62.302 19.225,61.809 18.583 C 60.877 17.373,57.682 14.167,57.407 14.167 C 57.320 14.167,56.931 13.875,56.542 13.519 C 56.152 13.163,55.833 12.896,55.833 12.925 C 55.833 12.954,55.177 12.564,54.375 12.059 C 52.655 10.976,50.543 9.942,48.941 9.397 C 48.308 9.181,47.706 8.936,47.604 8.851 C 47.429 8.708,45.426 8.302,43.344 7.990 C 42.224 7.822,38.268 7.687,36.917 7.771 M59.250 8.833 C 59.307 8.925,59.536 9.000,59.760 9.000 C 59.984 9.000,60.167 8.925,60.167 8.833 C 60.167 8.742,59.937 8.667,59.657 8.667 C 59.359 8.667,59.190 8.736,59.250 8.833 M110.063 12.167 C 110.063 13.221,110.090 13.652,110.123 13.125 C 110.156 12.598,110.156 11.735,110.123 11.208 C 110.090 10.681,110.063 11.112,110.063 12.167 M131.292 10.456 C 131.773 10.490,132.560 10.490,133.042 10.456 C 133.523 10.423,133.129 10.395,132.167 10.395 C 131.204 10.395,130.810 10.423,131.292 10.456 M137.207 19.708 L 137.247 29.083 137.292 19.797 L 137.336 10.511 139.126 10.458 L 140.917 10.404 139.042 10.369 L 137.167 10.333 137.207 19.708 M263.695 17.553 C 263.186 18.095,263.242 18.243,263.760 17.725 C 263.995 17.490,264.158 17.269,264.122 17.233 C 264.086 17.197,263.894 17.341,263.695 17.553 M279.574 23.167 C 279.574 26.146,279.597 27.365,279.625 25.875 C 279.652 24.385,279.652 21.948,279.625 20.458 C 279.597 18.969,279.574 20.188,279.574 23.167 M194.387 20.500 C 194.387 21.096,194.417 21.340,194.454 21.042 C 194.491 20.744,194.491 20.256,194.454 19.958 C 194.417 19.660,194.387 19.904,194.387 20.500 M273.738 24.333 C 273.738 26.488,273.762 27.369,273.791 26.292 C 273.820 25.215,273.820 23.452,273.791 22.375 C 273.762 21.298,273.738 22.179,273.738 24.333 M217.744 28.750 C 217.744 33.058,217.765 34.845,217.791 32.720 C 217.818 30.595,217.818 27.070,217.792 24.886 C 217.765 22.703,217.744 24.442,217.744 28.750 M231.649 23.208 C 231.551 23.443,231.586 24.533,231.693 24.600 C 231.770 24.647,231.833 24.344,231.833 23.927 C 231.833 23.310,231.747 22.974,231.649 23.208 M112.064 27.750 C 112.064 28.850,112.091 29.278,112.124 28.702 C 112.156 28.125,112.156 27.225,112.123 26.702 C 112.090 26.178,112.063 26.650,112.064 27.750 M110.230 40.833 C 110.230 41.887,110.257 42.319,110.290 41.792 C 110.323 41.265,110.323 40.402,110.290 39.875 C 110.257 39.348,110.230 39.779,110.230 40.833 M112.229 56.417 C 112.229 57.425,112.257 57.816,112.290 57.286 C 112.323 56.755,112.323 55.930,112.289 55.452 C 112.256 54.974,112.229 55.408,112.229 56.417 M370.896 57.750 C 370.896 58.758,370.924 59.149,370.957 58.619 C 370.990 58.088,370.990 57.263,370.956 56.786 C 370.922 56.308,370.895 56.742,370.896 57.750 M262.000 57.139 C 262.000 57.521,262.070 57.833,262.156 57.833 C 262.243 57.833,262.269 57.555,262.216 57.208 C 262.082 56.343,262.000 56.316,262.000 57.139 M161.000 57.333 C 161.000 57.425,161.112 57.500,161.250 57.500 C 161.387 57.500,161.500 57.587,161.500 57.694 C 161.500 57.801,161.548 57.841,161.607 57.782 C 161.731 57.658,161.363 57.167,161.146 57.167 C 161.066 57.167,161.000 57.242,161.000 57.333 M304.239 63.583 C 304.239 65.875,304.262 66.836,304.291 65.718 C 304.320 64.600,304.320 62.725,304.291 61.551 C 304.263 60.377,304.239 61.292,304.239 63.583 M370.905 65.167 C 370.905 67.412,370.929 68.331,370.958 67.208 C 370.987 66.085,370.987 64.248,370.958 63.125 C 370.929 62.002,370.905 62.921,370.905 65.167 M185.833 65.417 C 185.833 67.693,185.877 69.512,185.929 69.459 C 186.049 69.340,186.039 61.484,185.920 61.364 C 185.872 61.317,185.833 63.140,185.833 65.417 M384.762 63.000 C 384.822 63.229,384.937 63.488,385.019 63.575 C 385.257 63.830,385.184 63.464,384.904 63.000 L 384.653 62.583 384.762 63.000 M87.000 65.234 C 87.000 65.385,87.844 66.167,88.008 66.167 C 88.272 66.167,88.193 66.060,87.583 65.595 C 87.263 65.350,87.000 65.188,87.000 65.234 M110.396 69.417 C 110.396 70.425,110.424 70.816,110.457 70.286 C 110.490 69.755,110.490 68.930,110.456 68.452 C 110.422 67.974,110.395 68.408,110.396 69.417 M204.917 68.667 C 204.751 68.850,204.699 69.000,204.802 69.000 C 204.904 69.000,205.069 68.850,205.167 68.667 C 205.265 68.483,205.317 68.333,205.282 68.333 C 205.247 68.333,205.083 68.483,204.917 68.667 M313.417 68.667 C 313.251 68.850,313.199 69.000,313.302 69.000 C 313.404 69.000,313.569 68.850,313.667 68.667 C 313.765 68.483,313.817 68.333,313.782 68.333 C 313.747 68.333,313.583 68.483,313.417 68.667 M312.750 70.545 C 312.383 70.909,312.233 71.130,312.417 71.035 C 312.809 70.832,313.801 69.822,313.573 69.858 C 313.487 69.872,313.117 70.181,312.750 70.545 M110.961 74.121 C 111.261 74.158,111.711 74.157,111.961 74.119 C 112.212 74.081,111.967 74.051,111.417 74.052 C 110.867 74.053,110.662 74.084,110.961 74.121 M383.944 78.361 C 383.776 78.544,383.670 78.725,383.708 78.763 C 383.746 78.801,383.952 78.645,384.167 78.416 C 384.382 78.187,384.489 78.006,384.404 78.014 C 384.319 78.022,384.113 78.178,383.944 78.361 " stroke="none" fill="#0d345c" fill-rule="evenodd"></path><path id="path1" d="M110.063 10.375 C 110.119 12.965,110.203 25.583,110.250 38.417 C 110.297 51.250,110.382 64.506,110.439 67.875 L 110.542 74.000 111.463 74.000 L 112.385 74.000 112.276 60.458 C 112.216 53.010,112.118 37.635,112.058 26.292 L 111.948 5.667 110.955 5.667 L 109.962 5.667 110.063 10.375 M150.583 8.087 C 150.125 8.308,149.614 8.491,149.448 8.494 C 149.282 8.497,148.757 8.678,148.281 8.896 C 147.806 9.113,147.285 9.336,147.125 9.390 C 146.851 9.484,146.723 10.001,146.925 10.202 C 146.975 10.253,147.324 10.216,147.701 10.120 C 148.357 9.953,148.408 9.969,148.864 10.480 L 149.341 11.014 149.296 20.922 L 149.250 30.830 148.833 31.217 C 148.348 31.666,148.347 31.667,147.583 31.667 C 147.072 31.667,147.000 31.718,147.000 32.083 L 147.000 32.500 150.917 32.500 L 154.833 32.500 154.833 32.066 C 154.833 31.660,154.790 31.636,154.167 31.695 C 153.800 31.730,153.500 31.701,153.500 31.629 C 153.500 31.558,153.418 31.500,153.318 31.500 C 152.416 31.500,152.380 31.283,152.345 25.640 L 152.313 20.376 153.115 19.686 C 155.292 17.812,157.373 17.746,158.417 19.517 C 158.755 20.092,159.044 29.471,158.759 30.609 C 158.618 31.167,157.730 31.665,156.875 31.666 C 156.231 31.667,156.167 31.704,156.167 32.083 L 156.167 32.500 160.167 32.500 L 164.167 32.500 164.167 32.066 C 164.167 31.663,164.121 31.636,163.527 31.693 C 163.175 31.726,162.819 31.696,162.735 31.626 C 162.652 31.555,162.411 31.367,162.199 31.207 L 161.816 30.916 161.828 25.862 C 161.836 22.658,161.782 20.845,161.680 20.908 C 161.583 20.969,161.557 20.778,161.615 20.420 C 161.670 20.079,161.641 19.833,161.545 19.833 C 161.454 19.833,161.415 19.646,161.459 19.417 C 161.508 19.163,161.462 19.000,161.343 19.000 C 161.235 19.000,161.193 18.925,161.250 18.834 C 161.368 18.643,160.873 17.684,160.500 17.381 C 160.362 17.269,160.325 17.174,160.417 17.170 C 160.605 17.161,160.038 16.812,159.167 16.400 C 157.476 15.600,154.810 16.446,153.176 18.299 L 152.338 19.250 152.336 13.458 L 152.333 7.667 151.875 7.676 C 151.623 7.682,151.042 7.866,150.583 8.087 M291.167 7.861 C 289.845 8.366,289.573 9.698,290.580 10.736 C 291.872 12.065,293.951 10.869,293.557 9.022 C 293.374 8.162,292.055 7.521,291.167 7.861 M201.667 8.383 C 201.621 8.427,200.955 8.501,200.188 8.547 C 199.420 8.593,198.745 8.695,198.688 8.774 C 198.630 8.852,198.409 8.936,198.195 8.959 C 197.750 9.007,195.620 10.213,195.149 10.684 C 194.975 10.858,194.768 11.000,194.688 11.000 C 194.363 11.000,191.833 14.096,191.833 14.493 C 191.833 14.588,191.770 14.667,191.693 14.667 C 190.516 14.667,190.205 25.154,191.368 25.639 C 191.442 25.670,191.460 25.764,191.408 25.848 C 191.296 26.029,192.317 28.000,192.523 28.000 C 192.602 28.000,192.667 28.070,192.667 28.156 C 192.667 28.323,193.738 29.577,194.617 30.439 C 196.526 32.311,201.205 33.445,204.250 32.772 C 205.656 32.462,205.618 32.475,206.826 31.876 C 207.426 31.578,208.007 31.335,208.117 31.334 C 208.227 31.334,208.393 31.202,208.487 31.042 C 208.580 30.881,208.659 30.805,208.662 30.872 C 208.664 30.939,209.228 30.423,209.914 29.726 C 210.600 29.029,211.120 28.393,211.071 28.313 C 211.021 28.232,211.100 28.167,211.245 28.167 C 211.391 28.167,211.554 28.035,211.607 27.875 C 211.660 27.715,211.960 27.081,212.273 26.467 C 213.434 24.190,213.890 21.078,213.452 18.417 C 213.198 16.878,212.264 14.167,211.988 14.167 C 211.903 14.167,211.833 14.021,211.833 13.843 C 211.833 13.665,211.684 13.414,211.501 13.286 C 211.318 13.158,211.213 13.009,211.267 12.955 C 211.321 12.901,211.208 12.758,211.016 12.638 C 210.824 12.518,210.667 12.329,210.667 12.217 C 210.667 12.105,210.395 11.805,210.063 11.549 C 209.732 11.293,209.124 10.800,208.713 10.453 C 207.912 9.776,206.359 8.919,206.208 9.070 C 206.158 9.120,206.018 9.031,205.897 8.872 C 205.748 8.676,205.676 8.654,205.672 8.804 C 205.668 8.969,205.601 8.958,205.403 8.760 C 205.258 8.615,204.939 8.509,204.695 8.524 C 204.450 8.538,203.688 8.495,203.000 8.427 C 202.313 8.359,201.713 8.339,201.667 8.383 M47.575 8.820 C 47.628 8.905,48.176 9.141,48.793 9.344 C 50.348 9.856,52.649 10.973,54.333 12.032 C 55.710 12.897,55.774 12.919,56.583 12.794 C 60.120 12.247,63.312 12.383,65.610 13.177 C 66.420 13.457,67.215 13.698,67.375 13.712 C 67.535 13.726,67.667 13.801,67.667 13.879 C 67.667 13.956,67.742 13.973,67.833 13.917 C 67.925 13.860,68.000 13.876,68.000 13.952 C 68.000 14.028,68.281 14.239,68.625 14.420 C 70.095 15.195,73.425 19.218,73.582 20.408 C 73.606 20.596,73.789 21.313,73.989 22.000 C 74.497 23.754,74.614 26.522,74.251 28.167 C 74.099 28.854,73.962 29.585,73.946 29.792 C 73.930 29.998,73.869 30.167,73.811 30.167 C 73.754 30.167,73.623 30.498,73.521 30.904 C 73.346 31.598,72.206 33.519,71.833 33.750 C 71.738 33.809,71.704 33.926,71.757 34.012 C 71.810 34.097,71.745 34.167,71.613 34.167 C 71.482 34.167,71.025 34.575,70.599 35.074 C 68.071 38.033,62.483 39.833,55.825 39.833 L 53.500 39.833 53.500 29.352 L 53.500 18.870 52.773 17.883 C 50.290 14.510,46.387 12.107,42.250 11.405 L 41.583 11.292 42.250 11.788 C 43.508 12.725,44.219 14.002,44.193 15.279 C 44.185 15.675,44.244 16.000,44.324 16.000 C 44.403 16.000,44.429 16.296,44.380 16.659 C 44.331 17.021,44.339 17.441,44.397 17.592 C 44.533 17.946,44.536 63.379,44.400 63.733 C 44.344 63.879,44.327 64.299,44.362 64.666 C 44.397 65.033,44.359 65.333,44.277 65.333 C 44.196 65.333,44.165 65.577,44.209 65.875 C 44.314 66.588,43.738 68.081,43.229 68.415 C 42.661 68.787,42.701 69.204,43.292 69.066 C 46.475 68.321,50.280 65.904,52.619 63.140 L 53.500 62.099 53.500 52.379 L 53.500 42.660 56.870 42.705 L 60.239 42.750 63.945 47.833 C 65.983 50.629,67.654 53.010,67.659 53.125 C 67.663 53.240,67.742 53.333,67.833 53.333 C 67.925 53.333,68.000 53.409,68.000 53.502 C 68.000 53.650,68.813 54.740,69.842 55.972 C 70.020 56.187,70.167 56.433,70.167 56.519 C 70.167 56.606,70.279 56.720,70.417 56.773 C 70.554 56.826,70.667 56.949,70.667 57.047 C 70.667 57.293,71.856 59.000,72.028 59.000 C 72.104 59.000,72.167 59.109,72.167 59.242 C 72.167 59.375,72.261 59.543,72.376 59.617 C 72.675 59.807,73.433 60.856,73.558 61.254 C 73.617 61.439,73.872 61.817,74.124 62.093 C 74.377 62.370,74.990 63.156,75.488 63.840 C 75.985 64.524,76.505 65.177,76.644 65.292 C 76.783 65.406,76.844 65.500,76.780 65.500 C 76.633 65.500,78.258 67.772,78.806 68.333 C 79.030 68.563,79.311 68.975,79.430 69.250 C 79.549 69.525,80.099 70.313,80.653 71.000 C 81.208 71.688,81.662 72.306,81.664 72.375 C 81.665 72.444,85.529 72.500,90.250 72.500 L 98.833 72.500 98.833 71.583 C 98.833 70.764,98.796 70.667,98.485 70.667 C 97.659 70.667,94.675 69.940,93.363 69.419 C 92.579 69.107,91.876 68.890,91.802 68.936 C 91.728 68.982,91.667 68.936,91.667 68.833 C 91.667 68.731,91.592 68.693,91.500 68.750 C 91.408 68.807,91.333 68.769,91.333 68.667 C 91.333 68.564,91.265 68.523,91.181 68.575 C 91.097 68.626,91.003 68.612,90.973 68.543 C 90.942 68.473,90.610 68.209,90.236 67.955 C 89.861 67.701,89.178 67.176,88.717 66.788 C 88.255 66.400,87.718 65.973,87.522 65.838 C 87.326 65.703,87.127 65.478,87.080 65.338 C 87.033 65.198,86.546 64.603,85.996 64.015 C 85.447 63.428,85.026 62.918,85.062 62.883 C 85.097 62.847,84.929 62.611,84.688 62.357 C 83.975 61.607,83.380 60.862,83.275 60.589 C 83.221 60.448,83.100 60.333,83.005 60.333 C 82.911 60.333,82.833 60.239,82.833 60.123 C 82.833 60.008,82.650 59.716,82.427 59.475 C 82.203 59.233,82.047 59.008,82.081 58.974 C 82.115 58.941,81.768 58.426,81.311 57.832 C 79.867 55.953,79.250 55.098,79.250 54.977 C 79.250 54.913,79.100 54.685,78.917 54.471 C 78.733 54.258,78.176 53.520,77.679 52.833 C 77.182 52.146,76.671 51.496,76.543 51.390 C 76.415 51.284,76.335 51.167,76.364 51.130 C 76.446 51.025,75.129 49.167,74.972 49.167 C 74.896 49.167,74.833 49.058,74.833 48.925 C 74.833 48.792,74.739 48.623,74.624 48.550 C 74.331 48.363,73.500 47.226,73.500 47.011 C 73.500 46.913,73.369 46.696,73.208 46.527 C 73.048 46.359,72.842 46.108,72.750 45.971 C 72.281 45.266,70.491 42.868,70.190 42.542 C 70.000 42.335,69.889 42.167,69.943 42.167 C 69.997 42.167,69.946 42.052,69.830 41.913 C 69.539 41.561,69.587 41.534,71.529 40.969 C 72.475 40.693,73.325 40.410,73.417 40.339 C 73.572 40.219,74.604 39.853,75.052 39.759 C 75.785 39.606,78.915 37.684,79.985 36.731 C 80.771 36.030,81.636 35.109,81.688 34.917 C 81.713 34.825,81.887 34.621,82.075 34.464 C 82.263 34.307,82.364 34.175,82.300 34.172 C 82.235 34.169,82.348 33.986,82.550 33.765 C 83.145 33.113,84.310 30.639,84.687 29.227 C 85.138 27.535,85.339 23.378,84.980 23.151 C 84.853 23.070,84.833 23.004,84.935 23.003 C 85.043 23.001,85.087 22.825,85.041 22.583 C 84.997 22.354,84.890 22.167,84.804 22.167 C 84.718 22.167,84.697 22.086,84.758 21.987 C 85.044 21.525,83.570 17.971,82.666 16.942 C 82.396 16.633,82.211 16.345,82.256 16.300 C 82.342 16.214,80.648 14.437,79.662 13.580 C 78.610 12.665,77.889 12.167,77.777 12.279 C 77.716 12.339,77.667 12.303,77.667 12.199 C 77.667 11.970,76.753 11.470,76.604 11.618 C 76.547 11.675,76.500 11.635,76.500 11.528 C 76.500 11.421,76.444 11.346,76.375 11.361 C 76.306 11.376,75.911 11.236,75.497 11.050 C 73.430 10.122,68.282 8.967,67.326 9.217 C 67.147 9.264,67.000 9.229,67.000 9.140 C 67.000 9.047,66.545 8.994,65.944 9.015 C 65.363 9.036,64.795 8.996,64.682 8.926 C 64.568 8.856,63.324 8.825,61.918 8.857 C 60.512 8.890,59.305 8.860,59.236 8.792 C 59.051 8.607,47.461 8.635,47.575 8.820 M125.930 10.292 C 125.875 11.094,125.792 12.331,125.745 13.042 L 125.659 14.333 126.100 14.333 C 126.493 14.333,126.532 14.283,126.450 13.874 C 126.312 13.185,127.101 11.714,127.917 11.142 C 128.692 10.597,130.107 10.342,132.381 10.337 L 133.846 10.333 133.798 20.292 C 133.746 31.127,133.758 30.986,132.810 31.316 C 132.548 31.408,132.333 31.543,132.334 31.616 C 132.334 31.690,131.921 31.724,131.417 31.693 C 130.527 31.637,130.500 31.648,130.500 32.068 L 130.500 32.500 135.481 32.500 L 140.461 32.500 140.543 32.072 C 140.623 31.653,140.608 31.645,139.738 31.686 C 138.767 31.731,137.454 31.095,137.356 30.531 C 137.328 30.376,137.270 25.758,137.227 20.268 L 137.147 10.286 139.484 10.370 C 143.126 10.501,144.626 11.541,144.661 13.958 C 144.665 14.248,144.764 14.333,145.091 14.333 L 145.515 14.333 145.414 11.958 C 145.358 10.652,145.279 9.415,145.237 9.208 L 145.160 8.833 135.595 8.833 L 126.030 8.833 125.930 10.292 M204.833 10.244 C 205.772 10.719,205.879 10.795,206.761 11.611 C 207.596 12.384,208.703 14.408,208.869 15.468 C 208.950 15.984,209.069 16.447,209.133 16.495 C 209.197 16.544,209.275 17.033,209.305 17.582 C 209.335 18.131,209.410 18.618,209.471 18.665 C 209.638 18.791,209.607 23.167,209.440 23.167 C 209.361 23.167,209.327 23.428,209.365 23.747 C 209.402 24.067,209.370 24.349,209.295 24.374 C 209.219 24.399,209.140 24.775,209.120 25.209 C 209.100 25.643,209.027 25.998,208.958 25.999 C 208.890 25.999,208.833 26.155,208.833 26.344 C 208.833 26.758,208.004 28.500,207.806 28.500 C 207.729 28.500,207.667 28.613,207.667 28.750 C 207.667 28.887,207.590 29.000,207.496 29.000 C 207.403 29.000,207.241 29.188,207.136 29.417 C 207.032 29.646,206.850 29.833,206.733 29.833 C 206.615 29.833,206.414 29.983,206.286 30.166 C 206.158 30.348,206.004 30.448,205.943 30.388 C 205.883 30.327,205.833 30.351,205.833 30.442 C 205.833 30.671,204.611 31.333,204.186 31.333 C 203.992 31.333,203.833 31.406,203.833 31.496 C 203.833 31.587,203.615 31.615,203.333 31.558 C 203.058 31.503,202.833 31.524,202.833 31.604 C 202.833 31.684,202.421 31.750,201.917 31.750 C 201.412 31.750,201.000 31.701,201.000 31.641 C 201.000 31.580,200.622 31.479,200.161 31.416 C 199.049 31.263,197.444 30.203,196.997 29.327 C 196.818 28.976,196.503 28.571,196.298 28.428 C 196.094 28.284,195.975 28.167,196.036 28.167 C 196.096 28.167,195.920 27.668,195.644 27.059 C 193.789 22.970,194.061 16.428,196.226 13.014 C 196.606 12.415,196.994 11.773,197.088 11.587 C 197.183 11.402,197.333 11.250,197.422 11.250 C 197.511 11.250,197.808 11.091,198.083 10.897 C 200.038 9.520,202.863 9.246,204.833 10.244 M281.176 12.750 C 280.792 13.529,280.408 14.167,280.322 14.167 C 280.237 14.167,280.167 14.245,280.167 14.341 C 280.167 14.656,277.892 16.812,277.441 16.926 C 276.400 17.187,276.907 17.649,278.292 17.701 L 279.583 17.750 279.583 23.958 C 279.583 27.373,279.641 30.167,279.712 30.167 C 279.782 30.167,279.793 30.353,279.735 30.582 C 279.661 30.877,279.708 31.026,279.898 31.099 C 280.045 31.156,280.130 31.258,280.088 31.327 C 279.835 31.735,281.562 32.667,282.572 32.667 C 283.359 32.667,284.667 32.239,284.667 31.982 C 284.667 31.900,284.758 31.833,284.870 31.833 C 285.233 31.833,286.667 29.777,286.667 29.256 C 286.667 28.863,285.817 29.258,285.442 29.825 C 284.662 31.004,283.258 30.923,282.625 29.663 C 282.365 29.145,282.334 28.477,282.334 23.375 L 282.333 17.667 284.250 17.667 L 286.167 17.667 286.167 17.083 L 286.167 16.500 284.250 16.500 L 282.333 16.500 282.333 13.917 C 282.333 10.805,282.201 10.672,281.176 12.750 M171.356 16.257 C 170.772 16.383,170.119 16.602,169.903 16.743 C 169.688 16.885,169.394 17.000,169.251 17.000 C 169.107 17.000,168.947 17.112,168.894 17.249 C 168.841 17.386,168.743 17.464,168.675 17.422 C 168.518 17.325,167.875 18.033,167.242 19.000 C 166.972 19.412,166.688 19.796,166.611 19.852 C 166.534 19.908,166.483 19.983,166.497 20.019 C 166.512 20.054,166.436 20.308,166.330 20.583 C 165.641 22.366,165.484 26.061,166.025 27.750 C 166.292 28.586,167.296 30.333,167.508 30.333 C 167.595 30.333,167.667 30.471,167.667 30.640 C 167.667 30.963,169.258 32.082,170.439 32.590 C 172.083 33.296,176.041 32.622,176.446 31.567 C 176.495 31.439,176.653 31.333,176.796 31.333 C 176.939 31.333,177.010 31.288,176.955 31.233 C 176.900 31.178,177.035 30.971,177.256 30.775 C 178.284 29.859,179.632 26.792,179.143 26.482 C 178.738 26.225,178.589 26.334,178.190 27.185 C 175.681 32.531,168.167 29.574,168.167 23.242 L 168.167 22.667 173.750 22.667 L 179.333 22.667 179.333 22.167 C 179.333 21.892,179.273 21.667,179.200 21.667 C 179.127 21.667,179.096 21.416,179.132 21.110 C 179.173 20.758,179.103 20.460,178.940 20.297 C 178.798 20.155,178.722 20.001,178.770 19.953 C 178.817 19.905,178.698 19.555,178.504 19.175 C 177.237 16.690,174.503 15.574,171.356 16.257 M224.668 16.178 C 224.257 16.261,223.716 16.480,223.467 16.665 C 223.218 16.849,222.941 17.000,222.853 17.000 C 222.622 17.000,221.066 18.785,220.764 19.397 C 220.517 19.897,220.507 19.845,220.504 18.042 L 220.500 16.167 220.088 16.167 C 219.862 16.167,219.252 16.354,218.734 16.583 C 218.216 16.813,217.647 17.000,217.469 17.000 C 217.292 17.000,217.193 17.074,217.249 17.165 C 217.305 17.256,217.245 17.289,217.113 17.239 C 216.983 17.188,216.763 17.261,216.625 17.399 C 216.486 17.538,216.338 17.616,216.295 17.573 C 216.253 17.531,215.944 17.610,215.609 17.750 C 215.028 17.993,214.768 18.487,215.208 18.512 C 215.323 18.519,215.783 18.538,216.231 18.554 C 217.831 18.612,217.750 18.068,217.750 28.804 C 217.750 39.674,217.868 39.083,215.623 39.419 C 215.118 39.495,214.833 39.621,214.833 39.769 C 214.833 39.960,215.571 40.000,219.083 40.000 C 222.605 40.000,223.333 39.960,223.333 39.768 C 223.333 39.498,222.978 39.333,222.395 39.333 C 220.847 39.333,220.597 38.718,220.528 34.750 L 220.470 31.417 220.862 31.784 C 222.473 33.291,225.630 33.303,228.099 31.810 C 232.787 28.976,232.832 18.832,228.167 16.692 C 226.940 16.130,225.764 15.957,224.668 16.178 M239.856 16.246 C 239.272 16.379,238.597 16.619,238.356 16.781 C 238.114 16.942,237.858 17.077,237.786 17.079 C 237.713 17.081,237.583 17.196,237.496 17.333 C 237.410 17.471,237.337 17.513,237.336 17.427 C 237.332 17.208,236.383 18.124,235.815 18.896 C 235.553 19.251,235.380 19.607,235.430 19.687 C 235.479 19.768,235.451 19.833,235.367 19.833 C 234.209 19.833,234.052 26.932,235.166 28.915 C 235.347 29.238,235.495 29.558,235.493 29.626 C 235.489 29.844,236.667 31.333,236.843 31.333 C 237.015 31.333,238.007 31.982,238.173 32.203 C 238.994 33.296,243.087 33.066,244.639 31.840 C 245.093 31.481,245.522 31.239,245.592 31.302 C 245.663 31.365,245.666 31.323,245.600 31.208 C 245.534 31.094,245.553 31.000,245.642 31.000 C 245.871 31.000,246.840 29.646,246.734 29.475 C 246.686 29.397,246.726 29.333,246.823 29.333 C 246.921 29.333,247.003 29.240,247.006 29.125 C 247.009 29.010,247.156 28.617,247.333 28.250 C 247.667 27.558,247.739 27.049,247.566 26.597 C 247.436 26.258,247.000 26.253,247.000 26.590 C 247.000 27.438,245.756 28.918,244.448 29.625 C 243.069 30.371,240.695 29.994,239.417 28.825 C 239.233 28.657,239.024 28.518,238.952 28.515 C 238.796 28.510,237.987 27.573,237.973 27.382 C 237.968 27.310,237.822 26.971,237.648 26.630 C 237.219 25.789,236.833 24.251,236.833 23.382 L 236.833 22.667 242.339 22.667 L 247.845 22.667 247.740 21.792 C 247.529 20.027,247.061 18.834,246.179 17.810 C 245.795 17.364,245.399 17.000,245.299 17.000 C 245.198 17.000,244.718 16.812,244.232 16.582 C 243.102 16.047,241.330 15.911,239.856 16.246 M253.575 16.139 C 253.342 16.343,251.663 17.000,251.374 17.000 C 250.718 17.000,249.167 17.882,249.167 18.255 C 249.167 18.602,249.214 18.621,249.772 18.495 C 251.599 18.083,251.701 18.433,251.678 25.029 C 251.658 30.942,251.617 31.247,250.816 31.456 C 250.642 31.502,250.500 31.590,250.500 31.653 C 250.500 31.715,250.237 31.736,249.917 31.698 C 249.382 31.636,249.333 31.666,249.333 32.065 L 249.333 32.500 253.417 32.500 L 257.500 32.500 257.500 32.083 C 257.500 31.711,257.432 31.667,256.858 31.667 C 254.968 31.667,254.696 30.877,254.680 25.333 C 254.667 20.778,254.721 20.464,255.646 19.699 C 255.795 19.576,255.823 19.523,255.708 19.581 C 255.336 19.769,255.488 19.507,256.042 19.003 C 256.684 18.418,257.131 18.376,257.728 18.845 C 257.969 19.035,258.167 19.148,258.167 19.095 C 258.167 19.043,258.317 19.150,258.500 19.333 C 259.704 20.538,261.573 18.759,260.759 17.183 C 259.791 15.311,256.995 15.910,255.406 18.330 L 254.750 19.328 254.703 17.664 L 254.655 16.000 254.194 16.000 C 253.941 16.000,253.662 16.062,253.575 16.139 M266.953 16.175 C 263.883 16.645,261.644 19.385,262.927 21.103 C 264.024 22.572,265.472 21.779,265.552 19.667 C 265.598 18.433,265.924 17.803,266.733 17.379 C 268.380 16.516,270.761 17.757,270.698 19.445 C 270.686 19.750,270.732 20.000,270.799 20.000 C 270.866 20.000,270.882 20.431,270.835 20.957 L 270.750 21.914 269.667 22.361 C 269.071 22.607,268.412 22.814,268.203 22.821 C 267.994 22.828,267.780 22.945,267.727 23.082 C 267.675 23.219,267.568 23.292,267.489 23.243 C 267.341 23.152,265.098 24.223,264.736 24.558 C 264.622 24.664,264.076 25.117,263.523 25.566 C 259.580 28.764,263.746 34.858,268.038 32.171 C 268.521 31.869,269.179 31.474,269.500 31.294 C 269.821 31.115,270.242 30.821,270.436 30.643 L 270.788 30.318 270.896 30.992 C 270.955 31.363,271.082 31.667,271.178 31.667 C 271.274 31.667,271.313 31.731,271.265 31.809 C 271.127 32.032,271.864 32.615,272.406 32.712 C 273.920 32.982,276.488 31.135,276.496 29.770 L 276.500 29.124 275.754 29.812 C 274.958 30.546,274.516 30.659,274.095 30.238 C 273.770 29.913,273.821 30.698,273.693 24.000 C 273.584 18.336,273.577 18.242,273.196 17.707 C 272.345 16.513,269.426 15.797,266.953 16.175 M292.000 16.218 C 291.291 16.585,290.098 17.040,289.785 17.062 C 289.622 17.074,289.434 17.166,289.369 17.266 C 289.303 17.367,289.127 17.448,288.977 17.447 C 288.602 17.443,287.667 17.843,287.667 18.007 C 287.667 18.512,287.868 18.623,288.517 18.478 C 290.150 18.111,290.240 18.416,290.304 24.603 C 290.373 31.253,290.260 31.667,288.375 31.667 C 287.995 31.667,287.899 31.746,287.872 32.083 L 287.837 32.500 291.752 32.500 L 295.667 32.500 295.667 32.066 C 295.667 31.663,295.621 31.636,295.028 31.693 C 294.512 31.742,294.297 31.666,293.903 31.294 L 293.417 30.835 293.370 23.417 L 293.323 16.000 292.870 16.001 C 292.621 16.002,292.229 16.099,292.000 16.218 M321.653 16.168 C 321.234 16.239,320.580 16.456,320.202 16.649 C 319.823 16.842,319.400 17.000,319.263 17.000 C 319.125 17.000,318.930 17.152,318.831 17.338 C 318.731 17.524,318.590 17.639,318.516 17.593 C 318.382 17.511,317.663 18.175,317.713 18.333 C 317.728 18.379,317.481 18.792,317.164 19.250 C 315.575 21.547,315.213 25.874,316.390 28.500 C 316.772 29.351,317.755 30.833,317.939 30.833 C 318.043 30.833,318.242 31.006,318.380 31.217 C 319.398 32.771,323.327 33.398,325.370 32.334 C 326.973 31.498,328.562 29.520,329.090 27.702 C 329.568 26.058,328.948 25.785,328.182 27.302 C 326.397 30.839,322.012 30.908,319.578 27.439 C 318.882 26.445,318.625 25.776,318.332 24.186 C 318.021 22.496,317.411 22.667,323.750 22.667 L 329.333 22.667 329.333 21.917 C 329.333 21.504,329.269 21.167,329.190 21.167 C 329.111 21.167,329.080 20.991,329.121 20.776 C 329.163 20.557,329.083 20.273,328.939 20.129 C 328.798 19.988,328.726 19.830,328.778 19.777 C 328.896 19.660,328.038 18.167,327.853 18.167 C 327.780 18.167,327.633 17.975,327.526 17.741 C 327.419 17.506,327.257 17.361,327.166 17.417 C 327.075 17.474,327.000 17.442,327.000 17.346 C 327.000 16.574,323.636 15.833,321.653 16.168 M296.833 16.833 C 296.833 17.029,296.944 17.167,297.102 17.167 C 298.059 17.167,299.670 18.974,299.947 20.358 C 299.999 20.619,300.112 20.833,300.197 20.833 C 300.283 20.833,300.310 20.902,300.258 20.987 C 300.206 21.071,300.464 21.788,300.832 22.580 C 301.199 23.372,301.500 24.048,301.500 24.083 C 301.500 24.118,301.791 24.770,302.147 25.532 C 302.503 26.293,302.850 27.104,302.919 27.333 C 302.988 27.563,303.129 27.805,303.231 27.872 C 303.357 27.956,303.343 27.996,303.188 27.997 C 303.026 27.999,303.008 28.060,303.129 28.208 C 303.222 28.323,303.745 29.429,304.291 30.667 C 305.500 33.406,305.704 33.532,306.402 31.966 C 306.659 31.389,307.048 30.521,307.268 30.037 C 307.487 29.553,307.667 29.124,307.667 29.082 C 307.667 29.041,307.934 28.436,308.261 27.737 C 308.588 27.039,308.816 26.427,308.767 26.378 C 308.718 26.329,308.767 26.131,308.875 25.936 C 308.983 25.742,309.081 25.546,309.092 25.500 C 309.115 25.411,309.376 24.807,310.248 22.833 C 311.499 19.998,311.833 19.183,311.833 18.963 C 311.833 18.307,313.062 17.184,313.792 17.173 C 314.054 17.168,314.167 17.066,314.167 16.833 C 314.167 16.514,314.056 16.500,311.500 16.500 C 308.944 16.500,308.833 16.514,308.833 16.833 C 308.833 17.103,308.944 17.167,309.417 17.167 C 310.732 17.167,310.897 17.940,310.005 19.917 C 309.757 20.467,309.397 21.329,309.205 21.833 C 309.013 22.337,308.614 23.387,308.318 24.167 C 308.022 24.946,307.724 25.658,307.656 25.750 C 307.407 26.087,306.675 28.046,306.752 28.170 C 306.796 28.241,306.727 28.338,306.600 28.387 C 306.434 28.451,306.244 28.095,305.920 27.113 C 305.672 26.363,305.413 25.675,305.345 25.583 C 305.276 25.492,305.100 25.108,304.953 24.730 C 304.806 24.352,304.449 23.527,304.158 22.897 C 303.215 20.850,303.050 20.434,302.715 19.261 L 302.386 18.105 302.804 17.636 C 303.104 17.299,303.378 17.167,303.778 17.167 C 304.222 17.167,304.333 17.100,304.333 16.833 C 304.333 16.510,304.222 16.500,300.583 16.500 C 296.944 16.500,296.833 16.510,296.833 16.833 M173.780 17.810 C 174.598 18.326,175.330 19.610,175.459 20.752 L 175.543 21.500 171.855 21.500 C 169.015 21.500,168.167 21.452,168.168 21.292 C 168.180 18.492,171.549 16.402,173.780 17.810 M241.586 17.443 C 242.979 17.918,243.888 19.076,244.096 20.641 L 244.210 21.500 240.521 21.500 L 236.833 21.500 236.833 21.110 C 236.833 20.717,237.746 18.732,238.074 18.411 C 238.685 17.813,239.853 17.244,240.595 17.182 C 240.694 17.173,241.139 17.291,241.586 17.443 M323.575 17.640 C 324.616 18.226,325.359 19.401,325.565 20.792 L 325.671 21.500 321.923 21.500 L 318.175 21.500 318.279 20.958 C 318.809 18.198,321.532 16.492,323.575 17.640 M225.934 19.085 C 226.199 19.263,226.472 19.410,226.540 19.412 C 226.665 19.417,226.996 19.952,227.728 21.333 C 228.811 23.376,228.791 27.540,227.689 29.503 C 227.165 30.436,226.424 31.333,226.177 31.333 C 226.080 31.333,226.000 31.390,226.000 31.458 C 225.999 31.527,225.761 31.600,225.471 31.621 C 225.180 31.641,224.899 31.716,224.846 31.787 C 224.726 31.950,223.947 31.958,223.827 31.798 C 223.778 31.732,223.460 31.644,223.120 31.602 C 221.058 31.346,220.500 29.816,220.500 24.413 L 220.500 20.872 221.137 20.311 C 222.325 19.265,222.692 18.980,223.055 18.825 C 223.657 18.567,225.393 18.724,225.934 19.085 M270.832 26.042 L 270.830 29.083 269.869 29.703 C 267.858 30.998,266.853 31.033,265.778 29.842 C 264.861 28.827,264.697 27.522,265.336 26.328 C 265.709 25.632,269.935 23.015,270.708 23.002 C 270.777 23.001,270.833 24.369,270.832 26.042 M187.000 47.812 C 185.997 48.064,185.240 49.111,185.618 49.723 C 185.682 49.826,185.745 50.056,185.758 50.233 C 185.834 51.270,187.978 51.537,188.749 50.606 C 189.518 49.679,189.019 47.833,188.001 47.833 C 187.924 47.833,187.761 47.805,187.639 47.770 C 187.517 47.736,187.229 47.754,187.000 47.812 M269.750 48.111 C 268.566 48.477,268.167 48.689,268.167 48.955 C 268.167 49.082,268.096 49.143,268.010 49.089 C 267.086 48.518,265.177 52.799,265.170 55.458 L 265.167 56.500 263.667 56.500 C 262.191 56.500,262.167 56.507,262.167 56.903 C 262.167 57.772,262.272 57.833,263.764 57.833 L 265.159 57.833 265.204 63.849 C 265.229 67.158,265.187 69.904,265.110 69.951 C 265.034 69.999,265.007 70.174,265.050 70.341 C 265.094 70.510,265.026 70.685,264.897 70.735 C 264.768 70.784,264.683 70.916,264.707 71.029 C 264.731 71.142,264.675 71.245,264.583 71.256 C 264.492 71.268,264.206 71.365,263.947 71.472 C 263.689 71.579,263.183 71.667,262.822 71.667 C 262.234 71.667,262.167 71.709,262.167 72.083 L 262.167 72.500 267.000 72.500 L 271.833 72.500 271.833 72.083 C 271.833 71.682,271.794 71.667,270.760 71.667 C 268.223 71.667,268.169 71.501,268.168 63.792 L 268.167 57.833 270.250 57.833 L 272.333 57.833 272.333 57.167 L 272.333 56.500 270.250 56.500 L 268.167 56.500 268.167 54.273 C 268.167 51.010,268.251 50.592,269.081 49.726 C 270.114 48.648,271.437 48.790,272.437 50.087 C 273.710 51.736,274.115 52.076,274.811 52.076 C 275.476 52.076,276.251 51.605,276.070 51.311 C 276.020 51.232,276.060 51.167,276.157 51.167 C 276.416 51.167,276.372 50.224,276.086 49.672 C 275.841 49.198,274.836 48.351,274.831 48.614 C 274.829 48.689,274.773 48.674,274.706 48.582 C 274.212 47.904,271.313 47.629,269.750 48.111 M287.843 48.797 C 284.116 50.293,282.670 55.049,285.053 57.976 C 285.154 58.100,285.316 58.361,285.413 58.556 C 285.510 58.751,285.767 58.999,285.984 59.107 C 286.201 59.215,286.424 59.366,286.481 59.444 C 286.537 59.521,286.796 59.694,287.056 59.828 C 287.316 59.962,287.710 60.239,287.931 60.445 C 288.152 60.650,288.334 60.765,288.336 60.700 C 288.337 60.636,288.394 60.665,288.461 60.764 C 288.608 60.981,290.889 62.344,291.199 62.399 C 291.494 62.452,292.887 63.295,293.777 63.958 C 294.176 64.256,294.536 64.500,294.577 64.500 C 294.812 64.500,295.922 65.860,296.187 66.472 C 296.933 68.195,295.989 70.274,294.083 71.107 C 293.361 71.423,289.833 71.596,289.833 71.315 C 289.833 71.233,289.641 71.167,289.406 71.167 C 288.744 71.167,288.326 70.901,286.780 69.500 C 285.761 68.576,285.501 68.019,285.054 65.792 C 285.004 65.540,284.898 65.333,284.820 65.333 C 284.741 65.333,284.720 65.221,284.773 65.083 C 284.840 64.910,284.762 64.833,284.518 64.833 C 284.170 64.833,284.167 64.875,284.167 68.917 C 284.167 72.819,284.181 73.000,284.484 73.000 C 284.778 73.000,285.324 72.004,285.033 71.997 C 284.969 71.996,285.029 71.922,285.167 71.833 C 285.602 71.552,286.288 71.650,288.127 72.258 C 293.010 73.874,297.450 72.532,299.092 68.944 C 299.570 67.901,299.874 65.500,299.529 65.500 C 299.427 65.500,299.382 65.399,299.430 65.277 C 299.537 64.997,298.865 63.167,298.655 63.167 C 298.570 63.167,298.500 63.058,298.500 62.925 C 298.500 62.792,298.394 62.623,298.264 62.550 C 298.135 62.477,297.703 62.113,297.306 61.742 C 296.373 60.871,295.251 60.108,294.046 59.523 C 292.859 58.948,292.301 58.629,290.769 57.647 C 290.109 57.224,289.414 56.828,289.225 56.769 C 288.317 56.480,286.667 54.294,286.667 53.379 C 286.667 50.276,291.598 48.606,294.172 50.838 C 294.380 51.019,294.646 51.167,294.763 51.167 C 295.032 51.167,296.002 52.301,296.352 53.027 C 296.900 54.164,296.984 54.440,297.090 55.458 C 297.191 56.417,297.231 56.500,297.600 56.500 L 298.000 56.500 298.000 52.405 L 298.000 48.310 297.625 48.363 C 297.360 48.401,297.235 48.547,297.199 48.859 C 297.095 49.754,296.243 49.802,294.435 49.014 C 293.987 48.819,293.421 48.637,293.178 48.610 C 292.934 48.584,292.663 48.520,292.576 48.468 C 292.051 48.159,288.882 48.379,287.843 48.797 M125.167 49.156 C 125.167 49.453,125.270 49.500,125.923 49.500 C 127.253 49.500,128.247 50.210,128.492 51.333 C 128.633 51.978,128.600 69.691,128.457 70.201 C 128.186 71.169,127.640 71.503,126.125 71.628 C 125.249 71.700,125.167 71.741,125.167 72.103 L 125.167 72.500 130.250 72.500 L 135.333 72.500 135.333 72.083 C 135.333 71.697,135.275 71.667,134.543 71.667 C 133.543 71.667,132.335 71.188,132.334 70.792 C 132.334 70.631,132.269 70.500,132.191 70.500 C 132.112 70.500,132.033 68.475,132.014 66.000 L 131.979 61.500 133.234 61.500 C 134.301 61.500,134.514 61.548,134.660 61.820 C 134.754 61.997,134.963 62.272,135.124 62.433 C 135.285 62.594,135.417 62.771,135.417 62.825 C 135.417 62.974,136.958 65.104,137.444 65.627 C 137.677 65.878,138.005 66.351,138.172 66.678 C 138.339 67.005,138.741 67.590,139.064 67.977 C 139.387 68.364,140.258 69.540,140.998 70.590 L 142.344 72.500 145.505 72.500 L 148.667 72.500 148.667 72.064 C 148.667 71.710,148.604 71.644,148.333 71.715 C 148.150 71.763,148.000 71.725,148.000 71.632 C 148.000 71.538,147.827 71.494,147.616 71.535 C 147.405 71.575,147.140 71.509,147.026 71.387 C 146.913 71.266,146.642 71.167,146.425 71.167 C 145.956 71.167,144.327 69.927,144.210 69.481 C 144.165 69.310,144.062 69.211,143.981 69.262 C 143.900 69.312,143.833 69.240,143.833 69.103 C 143.833 68.965,143.698 68.754,143.533 68.634 C 143.368 68.515,142.793 67.798,142.254 67.042 C 141.716 66.285,141.213 65.667,141.137 65.667 C 141.062 65.667,141.019 65.607,141.042 65.534 C 141.097 65.356,139.817 63.500,139.639 63.500 C 139.563 63.500,139.500 63.406,139.500 63.292 C 139.500 63.177,139.200 62.746,138.833 62.333 C 138.467 61.921,138.167 61.490,138.167 61.375 C 138.167 61.260,138.161 61.113,138.155 61.048 C 138.148 60.982,138.504 60.805,138.946 60.655 C 140.078 60.270,141.500 59.527,141.500 59.321 C 141.500 59.225,141.568 59.189,141.652 59.241 C 141.990 59.450,143.647 56.706,143.412 56.326 C 143.358 56.238,143.393 56.167,143.490 56.167 C 143.599 56.167,143.667 55.685,143.667 54.917 C 143.667 54.148,143.599 53.667,143.490 53.667 C 143.393 53.667,143.357 53.597,143.410 53.511 C 143.532 53.314,143.015 52.000,142.815 52.000 C 142.734 52.000,142.667 51.896,142.667 51.770 C 142.667 51.643,142.423 51.351,142.125 51.120 C 141.827 50.889,141.433 50.558,141.250 50.384 C 140.753 49.913,139.396 49.301,138.786 49.274 C 138.491 49.261,138.197 49.175,138.131 49.083 C 137.857 48.699,125.167 48.770,125.167 49.156 M136.306 50.525 C 136.520 50.604,136.763 50.627,136.847 50.575 C 136.931 50.523,137.000 50.564,137.000 50.667 C 137.000 50.769,137.067 50.812,137.149 50.761 C 137.231 50.710,137.341 50.781,137.394 50.918 C 137.447 51.055,137.589 51.167,137.711 51.167 C 138.011 51.167,139.052 52.588,139.391 53.462 C 139.800 54.516,139.746 55.907,139.255 56.961 C 139.030 57.444,138.859 57.857,138.874 57.878 C 138.967 58.007,137.497 59.291,137.083 59.442 C 135.457 60.036,133.967 60.271,132.375 60.187 L 132.000 60.167 132.000 55.345 L 132.000 50.524 132.958 50.420 C 133.485 50.362,134.067 50.293,134.250 50.266 C 134.688 50.202,135.815 50.344,136.306 50.525 M155.679 56.181 C 154.640 56.385,153.195 57.008,152.622 57.500 C 151.449 58.506,150.030 60.736,150.230 61.259 C 150.277 61.380,150.242 61.503,150.153 61.532 C 149.990 61.587,149.868 65.330,149.977 66.917 C 150.045 67.899,150.791 69.575,151.500 70.334 C 151.775 70.628,152.000 70.936,152.000 71.018 C 152.000 71.100,152.066 71.148,152.146 71.125 C 152.226 71.102,152.508 71.273,152.771 71.504 C 154.449 72.979,157.236 73.357,159.258 72.384 C 160.352 71.857,161.578 70.892,161.296 70.778 C 161.146 70.718,161.156 70.689,161.333 70.680 C 161.659 70.662,162.966 68.310,163.180 67.356 C 163.484 65.999,162.782 66.014,162.150 67.379 C 160.841 70.200,157.244 70.904,154.920 68.792 C 154.643 68.541,154.361 68.335,154.293 68.334 C 154.030 68.332,153.023 66.539,152.819 65.708 C 152.700 65.227,152.562 64.833,152.510 64.832 C 152.459 64.831,152.395 64.306,152.368 63.665 L 152.319 62.500 157.826 62.500 L 163.333 62.500 163.331 62.042 C 163.322 60.458,161.934 57.500,161.201 57.500 C 161.104 57.500,161.000 57.380,160.971 57.234 C 160.819 56.484,157.501 55.824,155.679 56.181 M187.500 56.282 C 186.276 56.817,186.076 56.895,185.833 56.926 C 184.931 57.043,183.318 57.895,183.366 58.230 C 183.419 58.599,183.566 58.626,184.447 58.430 C 184.864 58.337,185.043 58.383,185.281 58.644 C 185.868 59.289,185.917 59.427,185.933 60.500 C 186.006 65.512,186.010 69.292,185.941 69.500 C 185.896 69.637,185.813 70.028,185.757 70.368 C 185.624 71.166,185.003 71.667,184.144 71.667 C 183.568 71.667,183.500 71.711,183.500 72.083 L 183.500 72.500 187.417 72.500 C 189.684 72.500,191.333 72.436,191.333 72.347 C 191.333 71.934,191.091 71.667,190.716 71.667 C 190.166 71.667,189.227 71.212,189.056 70.862 C 188.981 70.709,188.896 67.302,188.868 63.292 L 188.817 56.000 188.450 56.014 C 188.248 56.021,187.821 56.142,187.500 56.282 M199.500 56.159 C 198.538 56.337,197.302 56.817,197.067 57.105 C 196.966 57.228,196.843 57.288,196.794 57.238 C 196.744 57.189,196.319 57.539,195.849 58.016 C 195.379 58.493,195.027 58.916,195.067 58.956 C 195.106 58.995,194.992 59.174,194.813 59.353 C 194.634 59.532,194.533 59.751,194.587 59.839 C 194.642 59.928,194.551 60.001,194.385 60.003 C 194.129 60.005,194.121 60.030,194.333 60.167 C 194.471 60.256,194.503 60.329,194.405 60.331 C 193.843 60.339,193.363 64.668,193.721 66.500 C 194.115 68.513,194.178 68.747,194.344 68.806 C 194.431 68.837,194.460 68.930,194.408 69.014 C 194.356 69.098,194.398 69.167,194.500 69.167 C 194.602 69.167,194.647 69.230,194.599 69.308 C 194.353 69.706,196.367 71.658,197.772 72.385 C 198.988 73.014,201.160 73.090,202.583 72.554 C 203.409 72.243,205.371 70.862,205.254 70.673 C 205.207 70.597,205.285 70.490,205.428 70.435 C 205.571 70.381,205.645 70.267,205.593 70.182 C 205.541 70.098,205.559 70.003,205.633 69.973 C 206.313 69.691,207.210 66.488,206.642 66.372 C 206.378 66.318,205.833 67.129,205.833 67.577 C 205.833 67.682,205.649 68.018,205.424 68.324 C 204.112 70.101,200.739 70.557,199.125 69.176 C 198.959 69.033,198.804 68.954,198.782 69.000 C 198.699 69.169,197.152 67.415,197.059 67.047 C 197.007 66.838,196.899 66.667,196.820 66.667 C 196.742 66.667,196.720 66.555,196.773 66.418 C 196.827 66.276,196.753 66.126,196.602 66.067 C 196.455 66.011,196.376 65.900,196.425 65.820 C 196.474 65.740,196.442 65.391,196.352 65.046 C 196.262 64.700,196.138 63.985,196.075 63.458 L 195.962 62.500 201.481 62.500 L 207.000 62.500 207.000 61.907 C 207.000 60.042,205.244 56.860,204.202 56.838 C 204.083 56.835,203.701 56.687,203.351 56.509 C 202.612 56.132,200.621 55.951,199.500 56.159 M250.333 56.243 C 248.774 56.634,248.000 56.897,248.000 57.034 C 248.000 57.107,247.897 57.167,247.771 57.167 C 247.458 57.167,246.297 58.454,245.506 59.677 C 244.388 61.407,244.124 62.487,244.195 65.049 L 244.255 67.250 244.992 68.649 C 246.951 72.369,250.392 73.778,254.292 72.458 C 254.865 72.264,255.333 72.044,255.333 71.969 C 255.333 71.894,255.411 71.833,255.507 71.833 C 255.602 71.833,255.842 71.683,256.038 71.500 C 256.235 71.317,256.507 71.167,256.643 71.167 C 256.778 71.167,256.845 71.122,256.790 71.068 C 256.736 71.014,256.935 70.733,257.232 70.443 C 257.902 69.791,258.729 68.403,258.586 68.172 C 258.528 68.077,258.544 68.000,258.622 68.000 C 258.853 68.000,259.361 65.847,259.447 64.500 C 259.615 61.884,258.263 58.770,256.403 57.490 C 255.998 57.212,255.667 57.030,255.667 57.087 C 255.667 57.144,255.550 57.073,255.406 56.930 C 254.745 56.268,251.814 55.871,250.333 56.243 M323.525 56.418 C 323.035 56.647,322.530 56.833,322.404 56.833 C 322.278 56.833,321.684 57.058,321.083 57.333 C 320.483 57.608,319.911 57.833,319.811 57.833 C 319.712 57.833,319.677 57.952,319.732 58.097 C 319.788 58.242,319.833 58.421,319.833 58.496 C 319.833 58.570,320.138 58.563,320.511 58.479 C 322.261 58.086,322.333 58.351,322.333 65.174 C 322.333 71.427,322.260 71.667,320.340 71.667 C 319.911 71.667,319.833 71.730,319.833 72.083 L 319.833 72.500 323.917 72.500 L 328.000 72.500 328.000 72.065 C 328.000 71.671,327.948 71.636,327.449 71.694 C 327.081 71.738,326.796 71.661,326.587 71.463 C 326.415 71.300,326.184 71.167,326.072 71.167 C 325.488 71.167,325.333 69.945,325.333 65.347 L 325.333 60.867 325.984 59.975 C 327.255 58.232,327.388 58.188,328.689 59.083 C 329.928 59.935,330.892 59.848,331.415 58.837 C 331.998 57.709,331.401 56.542,330.058 56.184 C 329.002 55.902,326.833 56.675,326.833 57.332 C 326.833 57.497,326.721 57.674,326.583 57.727 C 326.445 57.780,326.108 58.178,325.833 58.611 L 325.333 59.399 325.333 57.699 L 325.333 56.000 324.875 56.002 C 324.623 56.003,324.015 56.190,323.525 56.418 M338.750 56.160 C 338.003 56.279,337.500 56.456,336.182 57.065 C 335.723 57.277,334.713 58.566,334.143 59.667 C 333.090 61.702,334.027 64.948,336.042 66.244 C 336.582 66.591,336.633 66.935,336.167 67.083 C 335.983 67.142,335.627 67.465,335.375 67.803 C 335.123 68.140,334.791 68.511,334.638 68.626 C 333.790 69.260,333.819 70.897,334.690 71.587 C 335.535 72.255,335.503 72.394,334.172 73.801 C 332.135 75.956,331.879 77.109,333.192 78.233 C 333.963 78.893,335.271 79.558,335.508 79.412 C 335.595 79.358,335.667 79.381,335.667 79.462 C 335.667 79.544,335.760 79.616,335.875 79.623 C 335.990 79.630,336.487 79.717,336.981 79.817 C 338.848 80.197,343.326 79.885,343.655 79.352 C 343.743 79.210,343.815 79.194,343.855 79.310 C 343.933 79.539,346.656 77.698,346.901 77.250 C 347.001 77.067,347.177 76.857,347.292 76.783 C 347.406 76.710,347.500 76.541,347.500 76.408 C 347.500 76.275,347.567 76.167,347.649 76.167 C 348.233 76.167,348.541 73.389,348.060 72.450 C 347.157 70.687,346.152 70.337,341.283 70.088 C 336.141 69.826,335.474 69.462,337.033 67.776 L 337.750 67.001 338.500 67.183 C 343.429 68.378,347.875 63.901,345.923 59.708 L 345.515 58.833 346.383 58.831 C 347.917 58.828,348.462 58.675,348.577 58.216 C 348.713 57.673,348.541 57.161,348.258 57.270 C 348.135 57.317,347.984 57.276,347.924 57.178 C 347.856 57.069,347.095 57.000,345.961 57.000 C 344.438 57.000,343.898 56.928,342.929 56.597 C 341.580 56.136,339.960 55.967,338.750 56.160 M356.583 56.168 C 355.660 56.342,354.192 56.904,353.812 57.229 C 353.638 57.378,353.439 57.500,353.368 57.500 C 353.298 57.500,352.942 57.920,352.578 58.433 C 352.214 58.946,351.826 59.463,351.714 59.582 C 351.382 59.936,350.790 61.834,350.769 62.610 C 350.759 63.007,350.694 63.332,350.625 63.332 C 350.434 63.334,350.476 65.799,350.669 65.918 C 350.763 65.976,350.793 66.096,350.738 66.186 C 350.351 66.812,351.596 69.591,352.822 70.835 C 356.553 74.625,361.901 73.190,363.830 67.881 C 364.435 66.217,363.846 65.661,363.080 67.172 C 360.421 72.421,353.721 69.993,353.059 63.542 L 352.953 62.500 358.560 62.500 L 364.167 62.500 364.159 62.042 C 364.153 61.654,363.948 60.508,363.779 59.917 C 363.596 59.274,362.287 57.436,362.083 57.533 C 362.024 57.561,361.904 57.455,361.816 57.297 C 361.330 56.428,358.471 55.811,356.583 56.168 M369.556 56.301 C 369.174 56.456,368.805 56.640,368.736 56.708 C 368.667 56.777,368.436 56.833,368.222 56.833 C 368.008 56.833,367.833 56.913,367.833 57.010 C 367.833 57.107,367.769 57.147,367.691 57.098 C 367.483 56.970,365.333 57.857,365.336 58.070 C 365.342 58.534,365.597 58.659,366.197 58.493 C 367.054 58.257,367.606 58.506,367.754 59.198 C 367.819 59.502,367.903 59.803,367.941 59.867 C 368.056 60.063,368.091 70.333,367.976 70.333 C 367.918 70.333,367.821 70.526,367.762 70.761 C 367.641 71.244,366.820 71.667,366.005 71.667 C 365.577 71.667,365.500 71.731,365.500 72.083 L 365.500 72.500 369.583 72.500 L 373.667 72.500 373.667 72.083 C 373.667 71.737,373.582 71.662,373.167 71.642 C 372.294 71.598,372.253 71.587,372.117 71.375 C 372.043 71.260,371.871 71.167,371.733 71.167 C 371.095 71.167,370.929 70.108,370.865 65.632 L 370.804 61.348 371.262 60.507 C 371.514 60.045,371.785 59.667,371.864 59.667 C 371.943 59.667,372.075 59.491,372.157 59.276 C 372.465 58.466,373.195 58.394,374.285 59.067 C 375.321 59.706,376.269 59.861,376.439 59.418 C 376.492 59.281,376.602 59.210,376.684 59.261 C 376.766 59.312,376.833 59.236,376.833 59.093 C 376.833 58.950,376.900 58.833,376.982 58.833 C 377.496 58.833,377.239 57.239,376.625 56.625 C 376.057 56.057,373.833 55.824,373.833 56.332 C 373.833 56.402,373.605 56.554,373.325 56.670 C 372.820 56.879,372.104 57.655,371.269 58.898 L 370.833 59.547 370.833 57.773 C 370.833 55.772,370.839 55.779,369.556 56.301 M164.667 56.833 C 164.667 57.043,164.778 57.167,164.967 57.167 C 165.857 57.167,167.935 59.458,167.711 60.191 C 167.689 60.262,167.888 60.792,168.153 61.368 C 169.490 64.279,170.704 67.120,170.739 67.417 C 170.761 67.600,170.863 67.900,170.966 68.083 C 171.069 68.267,171.350 68.867,171.590 69.417 C 171.829 69.967,172.207 70.806,172.430 71.282 C 172.652 71.759,172.907 72.340,172.996 72.574 C 173.219 73.159,173.789 73.141,174.013 72.542 C 174.107 72.290,174.326 71.783,174.500 71.417 C 175.237 69.861,175.983 67.941,175.902 67.809 C 175.853 67.731,175.890 67.667,175.984 67.667 C 176.078 67.667,176.240 67.508,176.344 67.313 C 176.497 67.027,176.491 66.986,176.308 67.095 C 176.132 67.201,176.124 67.178,176.271 66.990 C 176.375 66.858,176.516 66.563,176.585 66.333 C 176.654 66.104,176.963 65.367,177.272 64.696 C 177.581 64.025,177.833 63.445,177.833 63.408 C 177.833 63.371,178.099 62.774,178.423 62.081 C 178.747 61.389,178.972 60.756,178.922 60.675 C 178.872 60.594,178.918 60.500,179.024 60.464 C 179.131 60.429,179.228 60.252,179.242 60.072 C 179.332 58.849,180.730 57.167,181.656 57.167 C 181.889 57.167,182.000 57.059,182.000 56.833 C 182.000 56.513,181.889 56.500,179.250 56.500 C 176.611 56.500,176.500 56.513,176.500 56.833 C 176.500 57.111,176.611 57.167,177.167 57.167 C 178.534 57.167,178.752 57.925,177.912 59.750 C 177.288 61.104,176.991 61.880,177.067 61.956 C 177.107 61.996,177.014 62.174,176.861 62.353 C 176.708 62.531,176.608 62.694,176.639 62.714 C 176.711 62.760,175.997 64.659,175.464 65.843 C 175.239 66.342,174.912 67.106,174.736 67.541 C 174.560 67.976,174.370 68.332,174.314 68.333 C 174.168 68.334,173.500 66.682,173.500 66.319 C 173.500 66.153,173.369 65.940,173.208 65.847 C 173.048 65.753,173.000 65.675,173.102 65.672 C 173.213 65.669,173.145 65.381,172.933 64.958 C 172.644 64.383,172.053 63.040,171.924 62.667 C 171.908 62.621,171.704 62.171,171.471 61.667 C 170.750 60.110,170.620 59.767,170.556 59.250 C 170.522 58.975,170.421 58.725,170.332 58.695 C 170.228 58.660,170.232 58.522,170.342 58.316 C 170.438 58.139,170.463 57.908,170.399 57.804 C 170.327 57.688,170.356 57.661,170.474 57.734 C 170.586 57.803,170.667 57.751,170.667 57.611 C 170.667 57.321,171.019 57.167,171.680 57.167 C 172.056 57.167,172.167 57.091,172.167 56.833 C 172.167 56.510,172.056 56.500,168.417 56.500 C 164.778 56.500,164.667 56.510,164.667 56.833 M208.333 56.807 C 208.333 57.013,208.539 57.182,208.958 57.323 C 209.970 57.662,211.382 60.163,211.906 62.542 C 211.961 62.794,212.084 63.000,212.180 63.000 C 212.275 63.000,212.312 63.067,212.261 63.149 C 212.178 63.283,212.411 63.998,212.836 64.917 C 212.921 65.100,213.221 65.850,213.503 66.583 C 213.785 67.317,214.163 68.235,214.342 68.623 C 214.520 69.012,214.667 69.514,214.667 69.738 C 214.667 69.963,214.732 70.187,214.812 70.237 C 214.892 70.286,215.000 70.544,215.054 70.810 C 215.107 71.076,215.248 71.396,215.367 71.522 C 215.486 71.647,215.588 71.825,215.593 71.917 C 215.657 73.077,216.504 73.426,216.910 72.460 C 217.035 72.163,217.102 71.863,217.059 71.793 C 217.016 71.724,217.054 71.667,217.145 71.667 C 217.235 71.667,217.457 71.272,217.638 70.789 C 217.818 70.307,218.517 68.788,219.190 67.414 C 219.863 66.041,220.420 64.804,220.428 64.667 C 220.447 64.324,221.057 63.004,221.197 63.002 C 221.260 63.001,221.363 63.169,221.427 63.375 C 221.491 63.581,221.680 64.050,221.847 64.417 C 222.014 64.783,222.310 65.496,222.505 66.000 C 222.700 66.504,222.958 67.142,223.078 67.417 C 223.425 68.208,223.555 68.575,223.530 68.697 C 223.502 68.839,223.827 69.668,224.628 71.500 C 224.809 71.912,225.009 72.419,225.073 72.625 C 225.351 73.522,226.216 72.920,226.490 71.639 C 226.593 71.162,226.737 70.693,226.811 70.595 C 226.885 70.497,227.119 69.967,227.331 69.417 C 227.542 68.867,227.826 68.154,227.961 67.833 C 228.096 67.512,228.312 66.987,228.441 66.667 C 228.570 66.346,228.782 65.877,228.913 65.625 C 229.088 65.288,229.098 65.166,228.951 65.164 C 228.821 65.162,228.834 65.108,228.988 65.011 C 229.119 64.928,229.321 64.492,229.436 64.042 C 229.551 63.591,229.834 62.812,230.064 62.309 C 230.294 61.806,230.648 60.949,230.851 60.406 C 231.433 58.846,232.328 57.525,232.958 57.296 C 233.296 57.174,233.500 56.987,233.500 56.800 C 233.500 56.524,233.296 56.500,231.000 56.500 C 228.611 56.500,228.500 56.515,228.500 56.833 C 228.500 57.089,228.611 57.167,228.974 57.167 C 229.916 57.167,230.222 57.995,229.763 59.297 C 229.632 59.667,229.559 60.003,229.599 60.043 C 229.640 60.084,229.559 60.334,229.421 60.600 C 229.282 60.866,229.168 61.140,229.168 61.210 C 229.167 61.280,229.022 61.655,228.845 62.043 C 228.116 63.642,227.020 66.564,227.100 66.694 C 227.148 66.771,227.114 66.833,227.026 66.833 C 226.814 66.833,226.474 67.824,226.611 68.045 C 226.670 68.140,226.643 68.172,226.550 68.115 C 226.458 68.058,226.250 67.652,226.087 67.214 C 225.784 66.399,225.058 64.666,224.074 62.414 C 223.647 61.436,223.470 60.911,223.408 60.441 C 223.373 60.179,223.277 59.879,223.194 59.774 C 222.271 58.606,222.941 57.167,224.408 57.167 C 224.722 57.167,224.833 57.080,224.833 56.833 C 224.833 56.510,224.722 56.500,221.000 56.500 C 217.365 56.500,217.167 56.516,217.167 56.812 C 217.167 57.045,217.329 57.150,217.806 57.226 C 218.868 57.396,219.412 58.095,220.410 60.570 C 220.702 61.295,220.782 61.081,218.565 65.542 C 218.166 66.345,217.807 67.170,217.768 67.376 C 217.634 68.077,217.461 68.354,217.215 68.260 C 217.082 68.208,216.937 68.167,216.893 68.167 C 216.849 68.167,216.857 68.097,216.909 68.012 C 216.994 67.874,216.593 66.653,216.167 65.750 C 215.761 64.892,214.668 61.885,214.668 61.625 C 214.667 61.465,214.587 61.333,214.490 61.333 C 214.393 61.333,214.359 61.261,214.413 61.172 C 214.468 61.083,214.368 60.689,214.190 60.297 C 213.324 58.388,213.450 57.330,214.558 57.197 C 214.866 57.161,215.000 57.047,215.000 56.822 C 215.000 56.514,214.851 56.500,211.667 56.500 C 208.541 56.500,208.333 56.519,208.333 56.807 M301.667 56.833 C 301.667 57.105,301.778 57.167,302.266 57.167 C 304.111 57.167,304.225 57.546,304.337 64.083 C 304.389 67.108,304.492 69.733,304.565 69.917 C 305.412 72.050,306.469 72.863,308.417 72.878 C 309.795 72.889,310.797 72.510,311.658 71.652 C 311.972 71.339,312.290 71.102,312.364 71.125 C 312.439 71.148,312.482 71.110,312.461 71.042 C 312.439 70.973,312.720 70.628,313.086 70.275 L 313.750 69.634 313.797 71.317 C 313.839 72.798,313.880 73.000,314.140 73.000 C 314.449 73.000,316.746 72.102,317.950 71.511 C 318.335 71.321,318.804 71.167,318.992 71.167 C 319.346 71.167,319.428 70.907,319.191 70.533 C 319.082 70.362,318.963 70.357,318.622 70.513 C 316.931 71.283,316.761 70.616,316.695 62.958 L 316.640 56.500 313.986 56.500 C 311.507 56.500,311.333 56.520,311.333 56.811 C 311.333 57.049,311.492 57.144,312.006 57.213 C 313.733 57.445,313.831 57.795,313.832 63.719 C 313.833 68.211,313.755 69.000,313.309 69.000 C 313.210 69.000,312.770 69.301,312.332 69.668 C 310.355 71.323,308.406 71.126,307.522 69.181 C 307.290 68.671,307.242 67.695,307.199 62.542 L 307.148 56.500 304.407 56.500 C 301.778 56.500,301.667 56.514,301.667 56.833 M377.167 56.807 C 377.167 57.019,377.367 57.174,377.818 57.309 C 378.477 57.507,379.500 58.479,379.500 58.909 C 379.500 59.035,379.559 59.164,379.632 59.194 C 379.819 59.274,382.370 64.349,382.424 64.750 C 382.449 64.933,382.772 65.630,383.142 66.298 C 383.512 66.966,383.861 67.657,383.917 67.833 C 383.973 68.010,384.323 68.701,384.696 69.369 C 385.069 70.037,385.377 70.677,385.381 70.792 C 385.385 70.906,385.441 71.000,385.504 71.000 C 385.568 71.000,385.599 71.319,385.574 71.708 C 385.426 74.035,383.692 76.985,382.499 76.941 C 382.133 76.928,381.832 76.992,381.831 77.083 C 381.829 77.194,381.787 77.194,381.706 77.083 C 381.357 76.608,378.749 76.600,378.403 77.074 C 378.135 77.440,378.079 79.000,378.333 79.000 C 378.425 79.000,378.500 79.111,378.500 79.248 C 378.500 79.881,380.876 80.245,381.820 79.757 C 382.079 79.623,382.338 79.560,382.396 79.618 C 382.453 79.675,382.500 79.630,382.500 79.518 C 382.500 79.406,382.575 79.360,382.667 79.417 C 382.854 79.532,384.774 77.711,384.708 77.480 C 384.685 77.399,384.746 77.333,384.843 77.333 C 384.939 77.333,385.194 76.940,385.408 76.458 C 386.845 73.235,387.976 70.510,388.331 69.417 C 388.450 69.050,388.750 68.300,388.999 67.750 C 389.248 67.200,389.659 66.262,389.913 65.667 C 390.167 65.071,390.553 64.188,390.771 63.704 C 390.989 63.220,391.167 62.753,391.167 62.666 C 391.167 62.422,392.137 60.013,392.610 59.083 C 393.123 58.076,393.956 57.167,394.366 57.167 C 394.556 57.167,394.667 57.043,394.667 56.833 C 394.667 56.514,394.556 56.500,392.083 56.500 C 389.611 56.500,389.500 56.514,389.500 56.833 C 389.500 57.087,389.611 57.167,389.963 57.167 C 391.278 57.167,391.461 58.144,390.530 60.192 C 390.265 60.774,389.843 61.737,389.592 62.333 C 389.341 62.929,389.062 63.555,388.973 63.725 C 388.883 63.894,388.849 64.072,388.897 64.119 C 388.945 64.167,388.871 64.320,388.732 64.458 C 388.594 64.596,388.518 64.808,388.564 64.927 C 388.610 65.047,388.568 65.172,388.470 65.205 C 388.371 65.237,388.280 65.411,388.266 65.590 C 388.252 65.770,388.082 66.266,387.887 66.693 C 387.692 67.121,387.479 67.636,387.415 67.839 C 387.319 68.142,387.119 67.841,386.298 66.146 C 385.748 65.011,385.229 63.971,385.144 63.833 C 385.060 63.696,384.942 63.433,384.882 63.250 C 384.823 63.067,384.338 62.041,383.804 60.970 C 382.453 58.261,382.588 57.167,384.272 57.167 C 384.722 57.167,384.833 57.101,384.833 56.833 C 384.833 56.510,384.722 56.500,381.000 56.500 C 377.388 56.500,377.167 56.518,377.167 56.807 M340.737 56.995 C 343.375 57.998,344.195 63.943,341.940 65.708 C 341.561 66.005,341.230 66.288,341.206 66.338 C 341.163 66.428,339.475 66.285,339.007 66.152 C 337.401 65.697,336.232 60.929,337.201 58.789 C 337.358 58.443,337.470 58.135,337.451 58.105 C 337.388 58.002,338.454 57.173,338.855 57.013 C 339.379 56.803,340.211 56.795,340.737 56.995 M157.578 57.618 C 158.660 58.165,159.319 59.245,159.464 60.708 L 159.542 61.500 155.938 61.500 C 153.698 61.500,152.333 61.438,152.333 61.337 C 152.333 58.643,155.361 56.496,157.578 57.618 M201.341 57.671 C 202.313 58.166,202.947 59.011,203.081 59.986 C 203.145 60.452,203.261 60.833,203.339 60.833 C 203.416 60.833,203.468 60.983,203.454 61.167 C 203.430 61.489,203.310 61.500,199.711 61.500 L 195.994 61.500 196.100 61.042 C 196.159 60.790,196.359 60.246,196.546 59.833 C 196.732 59.421,196.876 59.008,196.866 58.917 C 196.839 58.674,198.230 57.665,198.959 57.399 C 199.678 57.136,200.470 57.226,201.341 57.671 M252.557 57.395 C 254.135 58.054,255.570 60.229,255.856 62.394 C 255.943 63.048,256.054 63.696,256.103 63.833 C 256.233 64.197,256.212 66.865,256.077 67.211 C 256.014 67.373,256.001 67.654,256.049 67.836 C 256.097 68.018,256.067 68.167,255.984 68.167 C 255.901 68.167,255.833 68.357,255.833 68.590 C 255.833 69.734,254.650 71.068,253.365 71.373 C 252.889 71.486,252.500 71.645,252.500 71.727 C 252.500 71.808,252.406 71.800,252.292 71.709 C 252.085 71.545,250.885 71.274,250.783 71.368 C 250.699 71.446,249.612 70.490,249.422 70.171 C 247.173 66.385,246.581 61.143,248.173 59.104 C 249.548 57.342,251.040 56.761,252.557 57.395 M358.390 57.613 C 359.392 58.131,360.191 59.396,360.399 60.792 L 360.504 61.500 356.739 61.500 L 352.974 61.500 353.085 60.958 C 353.645 58.225,356.317 56.541,358.390 57.613 M53.917 68.699 C 51.889 69.978,49.024 71.144,45.250 72.226 C 44.499 72.442,45.323 72.467,53.542 72.483 L 62.667 72.500 62.667 71.583 L 62.667 70.667 60.708 70.665 C 58.736 70.663,57.769 70.483,56.642 69.907 C 55.974 69.566,54.660 68.396,54.794 68.262 C 55.003 68.052,54.709 68.199,53.917 68.699 M341.750 72.833 C 343.492 72.924,345.174 73.072,345.489 73.163 C 345.804 73.253,346.091 73.298,346.128 73.261 C 346.281 73.108,346.888 73.920,347.003 74.431 C 347.176 75.198,345.950 77.195,345.484 76.907 C 345.412 76.862,345.276 76.959,345.182 77.121 C 345.087 77.284,345.008 77.366,345.005 77.304 C 345.002 77.242,344.569 77.351,344.042 77.545 C 342.674 78.049,339.054 78.043,337.591 77.534 C 337.045 77.344,336.539 77.226,336.466 77.271 C 336.393 77.316,336.333 77.272,336.333 77.172 C 336.333 77.073,336.145 76.920,335.916 76.833 C 334.786 76.403,334.806 74.853,335.961 73.275 L 336.553 72.467 337.568 72.568 C 338.126 72.623,340.008 72.742,341.750 72.833 " stroke="none" fill="#040404" fill-rule="evenodd"></path></g></svg>